<svg width="81" height="80" viewBox="0 0 81 80" fill="none" xmlns="http://www.w3.org/2000/svg">
<path d="M80.5297 50.2636C78.9997 46.6236 69.4197 41.3236 49.1997 39.9436C69.3897 38.3036 78.9098 32.8636 80.3898 29.2136C80.7998 28.2036 80.6397 27.2536 79.9397 26.5336C77.9697 24.5336 72.3798 24.7636 65.2698 27.0436C72.7998 21.1836 74.9597 16.4536 73.6197 14.3636C72.5197 12.6536 69.4897 12.8836 65.5397 14.9036C67.5098 10.9236 67.6997 7.89363 65.9697 6.81363C63.8597 5.49363 59.1598 7.72363 53.3998 15.3336C55.5798 8.19363 55.7398 2.59363 53.7098 0.653628C52.9898 -0.0363723 52.0297 -0.186372 51.0297 0.233628C47.3897 1.76363 42.0798 11.3436 40.7098 31.5436C39.0698 11.3636 33.6297 1.84363 29.9797 0.373628C28.9697 -0.0363723 28.0198 0.123628 27.2998 0.823628C25.2998 2.79363 25.5297 8.38363 27.8097 15.4936C21.9497 7.96363 17.2197 5.80363 15.1297 7.14363C13.4197 8.24363 13.6497 11.2736 15.6698 15.2236C11.6898 13.2536 8.65975 13.0636 7.57975 14.7936C6.26975 16.9036 8.48974 21.5936 16.0997 27.3636C8.95974 25.1836 3.35975 25.0236 1.41975 27.0536C0.72975 27.7736 0.579737 28.7336 0.999737 29.7336C2.52974 33.3736 12.1097 38.6836 32.3097 40.0536C12.1297 41.6936 2.60975 47.1336 1.13975 50.7836C0.729751 51.7936 0.889733 52.7436 1.58973 53.4636C3.55973 55.4636 9.14975 55.2336 16.2597 52.9536C8.72975 58.8136 6.56974 63.5436 7.90974 65.6336C9.00974 67.3436 12.0398 67.1136 15.9898 65.0936C14.0198 69.0736 13.8297 72.1036 15.5597 73.1836C17.6697 74.5036 22.3597 72.2736 28.1297 64.6636C25.9497 71.8036 25.7897 77.4036 27.8197 79.3436C28.2497 79.7636 28.7697 79.9736 29.3397 79.9936C29.7097 80.0036 30.1097 79.9236 30.5097 79.7536C34.1497 78.2236 39.4598 68.6436 40.8298 48.4436C42.4698 68.6236 47.9097 78.1436 51.5597 79.6136C51.8997 79.7536 52.2397 79.8236 52.5597 79.8336C53.1897 79.8536 53.7698 79.6236 54.2398 79.1636C56.2398 77.1936 56.0097 71.6036 53.7297 64.4936C59.5897 72.0236 64.3197 74.1836 66.4097 72.8436C68.1197 71.7436 67.8897 68.7136 65.8697 64.7636C69.8497 66.7336 72.8798 66.9236 73.9598 65.1936C75.2698 63.0836 73.0497 58.3936 65.4397 52.6236C72.5797 54.8036 78.1797 54.9636 80.1197 52.9336C80.8097 52.2136 80.9597 51.2536 80.5397 50.2536L80.5297 50.2636Z" fill="#438BED"/>
</svg>
