<svg width="82" height="85" viewBox="0 0 82 85" fill="none" xmlns="http://www.w3.org/2000/svg">
<path fill-rule="evenodd" clip-rule="evenodd" d="M64.9081 33.5995H9.34085V60.5299C9.34085 69.4782 14.2214 76.3705 21.5253 79.8517H2.25195C-0.750649 79.8517 -0.750649 84.4131 2.25195 84.4131H71.9971C74.9996 84.4131 74.9996 79.8517 71.9971 79.8517H52.7237C60.0241 76.3704 64.9081 69.4782 64.9081 60.5299V33.5995ZM35.629 3.80064C33.6471 1.55891 37.0505 -1.4473 39.0324 0.790633C47.8136 10.7299 32.5522 16.215 38.8282 21.7125C41.0811 23.6832 38.0859 27.1015 35.8368 25.1344C25.5118 16.0934 41.7306 10.7185 35.629 3.80064ZM13.1528 3.80064C11.1709 1.55891 14.5743 -1.451 16.5561 0.790633C25.3374 10.7299 10.076 16.215 16.352 21.7125C18.6048 23.6832 15.6097 27.1015 13.3606 25.1344C3.03937 16.0934 19.2543 10.7185 13.1528 3.80064ZM58.1052 3.80064C56.1234 1.55891 59.5267 -1.451 61.5086 0.790633C70.2899 10.7299 55.0284 16.215 61.3045 21.7125C63.5573 23.6832 60.5622 27.1015 58.3131 25.1344C47.988 16.0934 64.2068 10.7185 58.1052 3.80064ZM69.4697 38.792H82V54.681C82 63.1653 76.5553 66.283 68.7315 66.9214C69.2102 64.9247 69.47 62.7906 69.47 60.5266L69.4697 38.792Z" fill="#F57160"/>
</svg>
