<svg width="80" height="80" viewBox="0 0 80 80" fill="none" xmlns="http://www.w3.org/2000/svg">
<path d="M66.6098 26.6037H53.4098V13.4037C53.4098 6.00366 47.4098 0.00366211 40.0098 0.00366211C32.6098 0.00366211 26.6098 6.00366 26.6098 13.4037V26.6037H13.4098C6.00976 26.6037 0.00976562 32.6037 0.00976562 40.0037C0.00976562 47.4037 6.00976 53.4037 13.4098 53.4037H26.6098V66.6037C26.6098 74.0037 32.6098 80.0037 40.0098 80.0037C47.4098 80.0037 53.4098 74.0037 53.4098 66.6037V53.4037H66.6098C74.0098 53.4037 80.0098 47.4037 80.0098 40.0037C80.0098 32.6037 74.0098 26.6037 66.6098 26.6037Z" fill="#FF6699"/>
</svg>
