<svg width="50" height="52" viewBox="0 0 50 52" fill="none" xmlns="http://www.w3.org/2000/svg">
<path fill-rule="evenodd" clip-rule="evenodd" d="M11.3518 51.5575C11.8931 51.6154 12.389 51.6526 12.9179 51.6526L12.9221 51.6443C15.1152 51.6443 17.1707 51.1032 18.977 50.146C18.6369 49.9645 18.3059 49.7681 17.9852 49.5576C17.9712 49.5482 17.956 49.5371 17.9405 49.5258C17.9149 49.5071 17.8885 49.4878 17.8654 49.4749C17.7625 49.4071 17.6596 49.3353 17.5575 49.2641C17.4791 49.2094 17.4012 49.155 17.3241 49.103C17.2497 49.0658 17.1794 49.008 17.105 48.9336C17.0882 48.9204 17.0715 48.9074 17.0548 48.8945C16.9044 48.7773 16.763 48.6671 16.6216 48.5369C16.4578 48.4026 16.3122 48.2683 16.1622 48.1299C16.1229 48.0937 16.0833 48.0572 16.0431 48.0204C15.8489 47.8386 15.6712 47.6567 15.5017 47.4667C15.3199 47.2725 15.1505 47.0824 14.9935 46.8758C14.8241 46.6692 14.667 46.4667 14.51 46.2477C14.0637 45.632 13.6794 44.9708 13.353 44.2849C13.3158 44.2477 13.291 44.2146 13.291 44.165C13.196 43.9502 13.0968 43.7188 13.0018 43.4915C12.7373 42.8179 12.5183 42.1155 12.3737 41.3923C12.3365 41.2849 12.3117 41.1733 12.2993 41.0659L12.2914 41.018C12.2569 40.8077 12.2235 40.6036 12.2042 40.3923C12.1919 40.3675 12.1918 40.3427 12.1918 40.3179C12.172 40.1361 12.1522 39.9437 12.1323 39.7512C12.1274 39.7032 12.1224 39.6551 12.1175 39.6072C12.0555 38.7023 12.0927 37.8221 12.2125 36.9667C12.3076 36.2684 12.4522 35.5907 12.6712 34.9419C12.7662 34.6155 12.8778 34.2891 13.01 33.9667C13.4935 32.7353 14.167 31.6155 14.9852 30.6031C14.9852 30.6031 14.9976 30.6031 14.9976 30.5907C15.3365 30.194 15.6836 29.8056 16.0596 29.4461C16.6133 28.9048 17.2166 28.4213 17.8571 27.9874C18.0389 27.8676 18.2083 27.7354 18.353 27.5784C18.5678 27.3387 18.7249 27.0701 18.8488 26.7726C18.8967 26.6438 18.9355 26.5101 18.9638 26.3727C18.9281 26.2012 18.9096 26.0241 18.9096 25.8428C18.9096 25.665 18.928 25.4873 18.9641 25.3155C18.8919 24.967 18.7492 24.6375 18.5472 24.347C18.4976 24.2643 18.4397 24.1775 18.353 24.1073C18.291 24.0247 18.2083 23.9379 18.1257 23.88C18.0555 23.8098 17.9811 23.7478 17.8984 23.6982C17.4645 23.409 17.0431 23.0949 16.6464 22.7561C16.634 22.7561 16.6216 22.7561 16.6216 22.7437C15.6464 21.8883 14.791 20.9131 14.0885 19.8139C14.0885 19.8139 14.0761 19.8139 14.0761 19.8015C13.667 19.1404 13.3034 18.4379 13.0142 17.7024C12.8943 17.4007 12.7869 17.0991 12.6877 16.7726C12.4604 16.0619 12.3034 15.3388 12.2042 14.5908C12.1299 14.0495 12.0968 13.4958 12.0968 12.9379C12.0968 12.6487 12.1092 12.3594 12.1216 12.0826C12.1464 11.8305 12.1712 11.5867 12.196 11.347C12.196 11.3222 12.196 11.2975 12.2084 11.2851C12.2208 11.128 12.2456 10.971 12.2704 10.814L12.2704 10.814C12.2766 10.7768 12.2828 10.7437 12.289 10.7107C12.2952 10.6776 12.3014 10.6446 12.3076 10.6074C12.3323 10.4875 12.3571 10.3677 12.3819 10.2561C12.4191 10.0619 12.4646 9.87184 12.5142 9.67763C12.5396 9.59146 12.5645 9.50385 12.5897 9.41562C12.638 9.24573 12.687 9.07353 12.7414 8.90491C12.791 8.73549 12.8489 8.55367 12.9233 8.38838C12.952 8.32604 12.9752 8.25953 12.9993 8.19046C13.0168 8.14049 13.0347 8.08918 13.0555 8.03714C13.0906 7.95243 13.1268 7.87082 13.1629 7.78921C13.1991 7.7076 13.2352 7.62599 13.2704 7.54128C13.289 7.49996 13.3096 7.4607 13.3303 7.42144C13.3509 7.38219 13.3716 7.34293 13.3902 7.30161C13.4728 7.1074 13.572 6.91731 13.6794 6.7355C13.9315 6.27682 14.2084 5.83054 14.51 5.40906C15.4026 4.16113 16.5183 3.08676 17.7827 2.23552C17.7952 2.22659 17.807 2.21766 17.8183 2.20906C17.8331 2.19777 17.8472 2.18706 17.8612 2.17767C17.8753 2.16832 17.8905 2.1572 17.906 2.14587C17.9315 2.12717 17.9579 2.1079 17.9811 2.09503C18.2996 1.8832 18.628 1.68599 18.965 1.50412C17.162 0.551064 15.1046 0.0107016 12.9179 0C12.4014 0 11.8931 0.0330577 11.3518 0.0950408C9.37663 0.326444 7.50887 1.02479 5.88905 2.09503C5.86589 2.10789 5.83953 2.12717 5.81395 2.14587C5.79846 2.1572 5.78325 2.16832 5.76922 2.17767C5.75514 2.18706 5.74107 2.19777 5.72624 2.20906L5.72623 2.20907L5.72621 2.20908L5.72619 2.2091C5.71491 2.21768 5.70319 2.2266 5.6907 2.23552C4.42625 3.08676 3.31055 4.16113 2.418 5.40906C2.11634 5.83054 1.83949 6.27682 1.58742 6.7355C1.47998 6.91731 1.38081 7.1074 1.29817 7.30161C1.27957 7.34293 1.25891 7.38219 1.23825 7.42144C1.21759 7.4607 1.19693 7.49996 1.17833 7.54128C1.14321 7.62599 1.10705 7.7076 1.0709 7.78921C1.03474 7.87082 0.998582 7.95243 0.963459 8.03714C0.942645 8.08918 0.924743 8.14048 0.907309 8.19045L0.907306 8.19046C0.883206 8.25953 0.86 8.32604 0.831228 8.38838C0.756848 8.55367 0.698997 8.73549 0.649411 8.90491C0.59502 9.07352 0.545998 9.24571 0.497634 9.41559C0.472512 9.50384 0.447567 9.59146 0.422139 9.67763C0.372553 9.87184 0.327099 10.0619 0.289909 10.2561C0.265116 10.3677 0.240322 10.4875 0.215529 10.6074C0.209331 10.6446 0.203133 10.6776 0.196934 10.7107C0.190736 10.7437 0.184538 10.7768 0.178339 10.814C0.153546 10.971 0.128753 11.128 0.116356 11.2851C0.10396 11.2975 0.10396 11.3222 0.10396 11.347C0.0870192 11.5435 0.0673008 11.7428 0.0470822 11.9472L0.033712 12.0826C0.0213154 12.3594 0.00891878 12.6487 0.00891878 12.9379C0.00891878 13.4958 0.0419764 14.0495 0.116356 14.5908C0.215529 15.3388 0.372553 16.0619 0.599824 16.7726C0.698997 17.0991 0.806435 17.4007 0.926269 17.7024C1.21552 18.4379 1.57916 19.1404 1.98825 19.8015C1.98825 19.8139 2.00064 19.8139 2.00064 19.8139C2.70312 20.9131 3.55848 21.8883 4.53369 22.7437C4.53369 22.7561 4.54608 22.7561 4.55848 22.7561C4.95517 23.0949 5.37666 23.409 5.81054 23.6982C5.89318 23.7478 5.96756 23.8098 6.03781 23.88C6.12045 23.9379 6.2031 24.0247 6.26508 24.1073C6.35186 24.1775 6.40971 24.2643 6.45929 24.347C6.76095 24.7808 6.93037 25.3015 6.93037 25.8428C6.93037 26.1693 6.86838 26.4833 6.76095 26.7726C6.63698 27.0701 6.47996 27.3387 6.26508 27.5784C6.12045 27.7354 5.95103 27.8676 5.76922 27.9874C5.12872 28.4213 4.52542 28.9048 3.97171 29.4461C3.59567 29.8056 3.24857 30.194 2.90973 30.5907C2.90973 30.6031 2.89733 30.6031 2.89733 30.6031C2.07915 31.6155 1.4056 32.7353 0.922136 33.9667C0.789906 34.2891 0.678336 34.6155 0.583296 34.9419C0.364289 35.5907 0.219661 36.2684 0.124621 36.9667C0.00478657 37.8221 -0.0324033 38.7023 0.0295798 39.6072C0.0502408 39.8469 0.0750341 40.0907 0.0998273 40.3179C0.0998273 40.3427 0.0998273 40.3675 0.112224 40.3923C0.137017 40.6196 0.170075 40.8386 0.207265 41.0659C0.219661 41.1733 0.244455 41.2849 0.281644 41.3923C0.426272 42.1155 0.645279 42.8179 0.90974 43.4915C1.00478 43.7188 1.10395 43.9502 1.19899 44.165C1.19899 44.2146 1.22379 44.2477 1.26098 44.2849C1.58742 44.9708 1.97172 45.632 2.418 46.2477C2.57502 46.4667 2.73204 46.6692 2.90146 46.8758C3.05849 47.0824 3.22791 47.2725 3.40973 47.4667C3.57915 47.6567 3.75683 47.8386 3.95104 48.0204C3.99124 48.0572 4.03073 48.0936 4.06991 48.1297L4.07014 48.1299C4.2202 48.2683 4.36579 48.4026 4.52955 48.5369C4.67094 48.6671 4.81233 48.7773 4.96277 48.8944L4.96282 48.8945L5.01302 48.9336C5.0874 49.008 5.15765 49.0658 5.23203 49.103C5.30917 49.155 5.38709 49.2094 5.46545 49.2641C5.56758 49.3353 5.67047 49.4071 5.77335 49.4749C5.79648 49.4878 5.82281 49.507 5.84836 49.5257L5.84845 49.5258C5.86395 49.5371 5.87915 49.5482 5.89318 49.5576C7.50474 50.6154 9.37663 51.3179 11.3518 51.5575ZM31.0518 1.50354C31.3378 1.65466 31.6174 1.81617 31.8901 1.98759C31.9149 2.01238 31.9397 2.03718 31.9727 2.04957C34.4562 3.64047 36.3487 6.05368 37.2785 8.90904C37.3611 9.1611 37.4355 9.42556 37.5058 9.68176C37.7124 10.4669 37.8446 11.2727 37.89 12.1032C37.9024 12.3677 37.9148 12.6322 37.9148 12.909V12.9338C37.9148 15.7313 37.0099 18.3346 35.4934 20.442C34.576 21.6941 33.4438 22.7933 32.1421 23.6486C31.8777 23.8304 31.6463 24.0577 31.4686 24.3222C31.481 24.3346 31.4686 24.3346 31.4686 24.3346C31.3364 24.504 31.2413 24.6982 31.1793 24.9007C31.1254 25.031 31.0831 25.1688 31.053 25.3108C31.0893 25.4842 31.1081 25.6624 31.1081 25.8428C31.1081 26.0256 31.0887 26.2045 31.0527 26.3773C31.1461 26.8214 31.3553 27.2269 31.6587 27.566C31.8033 27.723 31.9603 27.8552 32.1421 27.975C32.795 28.4089 33.4066 28.9048 33.9603 29.4585C34.3322 29.8221 34.6835 30.194 35.0223 30.5907C35.0099 30.6031 35.0223 30.6031 35.0223 30.6031C35.8405 31.6155 36.5182 32.7353 36.9975 33.9667C37.5884 35.4378 37.9148 37.0535 37.9148 38.7394C37.9148 39.0039 37.9024 39.2684 37.89 39.5246C37.8788 39.7859 37.8474 40.0473 37.8171 40.2996C37.8138 40.3265 37.8106 40.3533 37.8074 40.3799C37.7702 40.6568 37.733 40.9212 37.6752 41.1857C37.5801 41.7394 37.4355 42.2725 37.2661 42.789C37.1834 43.0287 37.0967 43.2601 37.0016 43.4997C36.8198 43.9708 36.6049 44.4419 36.3611 44.884L36.3362 44.9293C36.2122 45.1543 36.0868 45.3818 35.9396 45.5948C34.9644 47.1361 33.6628 48.4625 32.1421 49.4625C32.0347 49.5328 31.9355 49.6071 31.8529 49.6898C31.595 49.8507 31.3311 50.0027 31.0617 50.1455C32.4308 50.8764 33.947 51.3655 35.5296 51.5575C36.0709 51.6154 36.5667 51.6526 37.0957 51.6526L37.0915 51.6443C39.6122 51.6443 41.951 50.9295 43.9386 49.6898C44.0212 49.6071 44.1204 49.5328 44.2279 49.4625C45.7485 48.4625 47.0502 47.1361 48.0254 45.5948C48.1725 45.3818 48.2979 45.1543 48.4219 44.9293L48.4468 44.884C48.6906 44.4419 48.9055 43.9708 49.0873 43.4997C49.1824 43.2601 49.2692 43.0287 49.3518 42.789C49.5212 42.2725 49.6658 41.7394 49.7609 41.1857C49.8187 40.9212 49.8559 40.6568 49.8931 40.3799L49.9028 40.2996C49.9331 40.0473 49.9646 39.7859 49.9758 39.5246C49.9882 39.2684 50.0006 39.0039 50.0006 38.7394C50.0006 37.0535 49.6741 35.4378 49.0832 33.9667C48.6039 32.7353 47.9262 31.6155 47.108 30.6031C47.108 30.6031 47.0956 30.6031 47.108 30.5907C46.7692 30.194 46.4179 29.8221 46.046 29.4585C45.4923 28.9048 44.8807 28.4089 44.2279 27.975C44.046 27.8552 43.889 27.723 43.7444 27.566C43.3229 27.0949 43.0832 26.4957 43.0832 25.8428C43.0832 25.5164 43.1452 25.1899 43.2651 24.9007C43.327 24.6982 43.4221 24.504 43.5543 24.3346C43.5543 24.3346 43.5667 24.3346 43.5543 24.3222C43.732 24.0577 43.9634 23.8304 44.2279 23.6486C45.5295 22.7933 46.6617 21.6941 47.5791 20.442C49.0956 18.3346 50.0006 15.7313 50.0006 12.9338V12.909C50.0006 12.6322 49.9882 12.3677 49.9758 12.1032C49.9303 11.2727 49.7981 10.4669 49.5915 9.68176C49.5212 9.42556 49.4468 9.1611 49.3642 8.90904C48.4344 6.05368 46.5419 3.64047 44.0584 2.04957C44.0254 2.03718 44.0006 2.01238 43.9758 1.98759C41.9841 0.735533 39.6246 0.0123966 37.0915 0C36.575 0 36.0667 0.0330577 35.5254 0.0950408C33.9401 0.277454 32.424 0.763334 31.0518 1.50354Z" fill="white"/>
</svg>
