<svg width="55" height="55" viewBox="0 0 55 55" fill="none" xmlns="http://www.w3.org/2000/svg">
<path d="M27.2189 18.9532C24.3402 18.9532 22.0059 16.6189 22.0059 13.7402V0H32.4275V13.7402C32.4275 16.6189 30.0932 18.9532 27.2145 18.9532H27.2189Z" fill="white"/>
<path d="M27.2189 35.4902C24.3402 35.4902 22.0059 37.8245 22.0059 40.7032V54.4435H32.4275V40.7032C32.4275 37.8245 30.0932 35.4902 27.2145 35.4902H27.2189Z" fill="white"/>
<path d="M21.3759 21.374C19.3421 23.4078 16.041 23.4078 14.0072 21.374L4.29102 11.6578L11.6598 4.28906L21.3759 14.0052C23.4097 16.039 23.4097 19.3401 21.3759 21.374Z" fill="white"/>
<path d="M33.0683 33.0683C31.0345 35.1021 31.0345 38.4033 33.0683 40.4371L42.7845 50.1532L50.1532 42.7845L40.4371 33.0683C38.4033 31.0345 35.1021 31.0345 33.0683 33.0683Z" fill="white"/>
<path d="M18.9532 27.2204C18.9532 30.0991 16.6189 32.4334 13.7402 32.4334H0V22.0117H13.7402C16.6189 22.0117 18.9532 24.346 18.9532 27.2247V27.2204Z" fill="white"/>
<path d="M35.4902 27.2204C35.4902 30.0991 37.8245 32.4334 40.7032 32.4334H54.4435V22.0117H40.7032C37.8245 22.0117 35.4902 24.346 35.4902 27.2247V27.2204Z" fill="white"/>
<path d="M21.3759 33.0683C23.4097 35.1021 23.4097 38.4033 21.3759 40.4371L11.6598 50.1532L4.29102 42.7845L14.0072 33.0683C16.041 31.0345 19.3421 31.0345 21.3759 33.0683Z" fill="white"/>
<path d="M33.0683 21.374C35.1021 23.4078 38.4033 23.4078 40.4371 21.374L50.1532 11.6578L42.7845 4.28906L33.0683 14.0052C31.0345 16.039 31.0345 19.3401 33.0683 21.374Z" fill="white"/>
</svg>
