<svg width="80" height="80" viewBox="0 0 80 80" fill="none" xmlns="http://www.w3.org/2000/svg">
<path d="M80.01 40.0037C80.01 38.3837 77.22 37.0737 66.17 37.0737C58.11 37.0737 47.91 37.7737 42.97 38.7837C47.18 36.0037 54.89 29.2837 60.58 23.5837C68.39 15.7737 69.44 12.8637 68.29 11.7237C67.14 10.5837 64.24 11.6237 56.43 19.4337C50.73 25.1337 44.01 32.8437 41.23 37.0437C42.24 32.1037 42.94 21.9037 42.94 13.8437C42.94 2.79366 41.63 0.00366211 40.01 0.00366211C38.39 0.00366211 37.07 2.79366 37.07 13.8437C37.07 21.9037 37.77 32.1037 38.78 37.0437C36 32.8337 29.28 25.1237 23.58 19.4337C15.77 11.6237 12.86 10.5737 11.72 11.7237C10.58 12.8737 11.62 15.7737 19.43 23.5837C25.13 29.2837 32.84 36.0037 37.04 38.7837C32.1 37.7737 21.9 37.0737 13.84 37.0737C2.79 37.0737 0 38.3837 0 40.0037C0 41.6237 2.79 42.9337 13.84 42.9337C21.9 42.9337 32.1 42.2337 37.04 41.2237C32.83 44.0037 25.13 50.7237 19.43 56.4237C11.62 64.2337 10.57 67.1437 11.72 68.2837C12.87 69.4337 15.77 68.3837 23.58 60.5737C29.28 54.8737 36 47.1637 38.78 42.9637C37.77 47.9037 37.07 58.1037 37.07 66.1637C37.07 77.2137 38.38 80.0037 40.01 80.0037C41.64 80.0037 42.94 77.2137 42.94 66.1637C42.94 58.1037 42.24 47.9037 41.23 42.9637C44.01 47.1737 50.73 54.8837 56.43 60.5737C64.24 68.3837 67.15 69.4337 68.29 68.2837C69.44 67.1337 68.39 64.2337 60.58 56.4237C54.88 50.7237 47.17 44.0037 42.97 41.2237C47.91 42.2337 58.11 42.9337 66.17 42.9337C77.22 42.9337 80.01 41.6237 80.01 40.0037Z" fill="#FFCC33"/>
</svg>
