<svg width="573" height="107" viewBox="0 0 573 107" fill="none" xmlns="http://www.w3.org/2000/svg">
<path d="M521.954 106.198C517.976 106.198 514.211 105.352 510.657 103.659C507.187 101.882 504.394 99.3435 502.279 96.0432C500.163 92.6583 499.105 88.681 499.105 84.1114C499.105 76.9184 500.925 70.7832 504.564 65.7058C508.202 60.6284 513.068 56.6934 519.161 53.9008C519.415 53.7316 519.5 53.4777 519.415 53.1393L503.929 4.01547L503.802 3.63467C503.802 3.46542 503.887 3.29617 504.056 3.12692C504.31 2.95767 504.564 2.87305 504.818 2.87305H571.458C571.797 2.87305 572.008 3 572.093 3.25388C572.262 3.50775 572.262 3.80393 572.093 4.14243L541.883 52.8854C541.713 53.1392 541.84 53.3508 542.263 53.5201C550.726 55.8895 554.957 62.9978 554.957 74.8451C554.957 80.1764 553.434 85.2537 550.387 90.0773C547.425 94.9008 543.406 98.7935 538.328 101.755C533.336 104.717 527.877 106.198 521.954 106.198Z" fill="#E99BFF"/>
<path d="M468.11 104.548C467.518 104.548 467.01 104.294 466.587 103.786L440.946 65.1981C440.693 64.8596 440.481 64.6903 440.312 64.6903C439.889 64.6903 439.677 64.9865 439.677 65.5789V91.8544C439.677 92.4467 439.465 92.9545 439.042 93.3776L428.888 103.913C428.464 104.336 427.957 104.548 427.364 104.548H406.547C405.955 104.548 405.447 104.336 405.024 103.913L394.869 93.3776C394.446 92.9545 394.234 92.4467 394.234 91.8544V22.1671C394.234 21.5748 394.404 21.0671 394.742 20.644L407.943 3.7616C408.366 3.25386 408.916 3 409.593 3H430.792C431.469 3 431.976 3.25386 432.315 3.7616L462.525 47.6811C462.864 48.0196 463.075 48.1888 463.16 48.1888C463.583 48.1888 463.795 47.8926 463.795 47.3002V13.4087C463.795 12.9855 463.964 12.4355 464.302 11.7585L469.634 3.7616C470.057 3.25386 470.565 3 471.157 3H486.643C487.32 3 487.828 3.25386 488.166 3.7616L493.497 11.7585C493.836 12.4355 494.005 12.9855 494.005 13.4087V103.279C494.005 104.125 493.582 104.548 492.736 104.548H468.11Z" fill="#E99BFF"/>
<path d="M325.995 104.548C323.626 104.548 322.441 103.363 322.441 100.994V98.455C322.441 96.0009 321.256 94.7739 318.887 94.7739H313.175C310.806 94.7739 309.621 93.5891 309.621 91.2197V82.842C309.621 80.4726 310.806 79.2878 313.175 79.2878H326.884C329.253 79.2878 330.438 80.4726 330.438 82.842V83.9844C330.438 86.3539 331.665 87.5386 334.119 87.5386H367.376C368.561 87.5386 369.449 87.2424 370.042 86.6501C370.719 85.9731 371.057 85.0845 371.057 83.9844V79.034C371.057 77.9339 370.719 77.0876 370.042 76.4953C369.449 75.8183 368.561 75.4798 367.376 75.4798H326.884C324.514 75.4798 323.33 74.295 323.33 71.9256V68.8792C323.33 66.5097 322.145 65.325 319.776 65.325H316.475C314.106 65.325 312.921 64.1403 312.921 61.7708V56.6934C312.921 55.5933 312.667 54.7471 312.159 54.1547C311.736 53.4777 311.102 53.1393 310.255 53.1393C308.394 53.1393 307.463 51.9545 307.463 49.5851V29.7832C307.463 27.4138 308.14 26.2291 309.494 26.2291C311.863 26.2291 313.048 25.0443 313.048 22.6749V17.7244C313.048 15.355 314.233 14.1703 316.602 14.1703H318.76C321.13 14.1703 322.314 12.9855 322.314 10.6161V6.55417C322.314 4.18472 323.499 3 325.868 3H373.215C375.585 3 376.769 4.18472 376.769 6.55417V10.743C376.769 13.1125 377.954 14.2972 380.323 14.2972C382.693 14.2972 383.878 15.4819 383.878 17.8514V20.8978C383.878 22.0825 384.089 23.0134 384.512 23.6904C385.02 24.2827 385.697 24.5789 386.543 24.5789C387.39 24.5789 388.024 24.9174 388.447 25.5944C388.955 26.1868 389.209 27.033 389.209 28.1331V54.1547C389.209 56.5242 388.024 57.7089 385.655 57.7089C384.132 57.7089 383.074 58.0051 382.481 58.5974C381.889 59.1052 381.593 60.036 381.593 61.39V76.8761C381.593 79.2455 382.651 80.4302 384.766 80.4302C386.882 80.4302 387.94 81.615 387.94 83.9844V89.0618C387.94 90.1619 387.643 91.0505 387.051 91.7274C386.543 92.3198 385.824 92.616 384.893 92.616C382.524 92.616 381.339 93.6738 381.339 95.7893C381.339 96.8894 381 97.7357 380.323 98.328C379.731 98.9204 378.885 99.2166 377.785 99.2166C376.685 99.2166 375.796 99.4705 375.119 99.9782C374.527 100.401 374.231 101.036 374.231 101.882C374.231 102.728 373.892 103.405 373.215 103.913C372.623 104.336 371.777 104.548 370.676 104.548H325.995ZM325.107 57.8358C325.107 60.2899 326.292 61.5169 328.661 61.5169H369.28C371.734 61.5169 372.961 60.2899 372.961 57.8358V18.8669C372.961 16.4974 371.734 15.3127 369.28 15.3127H328.661C326.292 15.3127 325.107 16.4974 325.107 18.8669V57.8358Z" fill="#E99BFF"/>
<path d="M260.234 69.6405L281.179 32.4486L302.377 69.6405L281.179 106.452L260.234 69.6405ZM270.897 14.2969L281.052 0.96875L291.206 14.2969L281.052 27.4981L270.897 14.2969Z" fill="#E99BFF"/>
<path d="M199.617 21.5325H218.15V49.0773H199.617V21.5325ZM199.617 67.6098H218.15V86.1423H199.617V67.6098ZM218.15 86.1423H236.682V104.548H218.15V86.1423ZM218.15 49.0773H236.682V67.6098H218.15V49.0773ZM236.682 67.6098H255.215V86.1423H236.682V67.6098ZM218.15 3H236.682V21.5325H218.15V3ZM236.682 21.5325H255.215V40.065H236.682V21.5325Z" fill="#E99BFF"/>
<path d="M102.888 79.5414C100.519 76.0719 99.334 72.01 99.334 67.3557C99.334 58.2164 103.396 48.4424 111.52 38.0337C119.644 27.5404 129.587 18.7396 141.349 11.6313C153.197 4.52294 164.113 0.96875 174.099 0.96875C180.53 0.96875 185.523 2.78817 189.077 6.42697C192.716 10.0658 194.535 14.7623 194.535 20.5167C194.535 29.2329 190.473 38.88 182.349 49.4579C174.226 59.9511 164.409 68.8789 152.9 76.2411C141.476 83.6033 131.237 87.2845 122.182 87.2845C120.913 87.2845 119.601 87.1998 118.247 87.0306V92.8696H192.758V104.548H102.888V79.5414ZM119.517 67.7365C126.71 67.7365 134.664 65.0285 143.38 59.6126C152.097 54.1121 159.543 47.6808 165.721 40.3185C171.983 32.9563 175.114 26.8212 175.114 21.913C175.114 20.9822 175.072 20.4744 174.987 20.3898C174.903 20.2206 174.606 20.1359 174.099 20.1359C167.329 20.1359 159.501 22.9285 150.616 28.5136C141.815 34.0141 134.241 40.5724 127.894 48.1885C121.548 55.72 118.374 62.236 118.374 67.7365H119.517Z" fill="#E99BFF"/>
<path d="M0.539062 78.5262V38.4148L21.1025 9.72754H56.6443L70.6071 28.0062V53.7739H79.4925V29.0216L63.4987 7.56964V3H95.1055V104.548H67.9415L79.4925 91.2197V77.8915H70.6071V87.4117L55.7557 104.548H22.2449L0.539062 78.5262ZM29.3533 99.5974C33.9229 99.5974 38.7041 96.8471 43.6969 91.3466C48.7743 85.7615 53.0055 78.357 56.3904 69.133C59.8599 59.9091 61.5947 50.0928 61.5947 39.6841C61.5947 31.7296 60.5369 25.6367 58.4213 21.4055C56.3058 17.1744 53.217 15.0588 49.1551 15.0588C43.9085 15.0588 38.7888 18.4014 33.796 25.0866C28.8032 31.7719 24.7413 40.0226 21.6102 49.8389C18.4792 59.5706 16.9137 68.6253 16.9137 77.003C16.9137 84.0267 18.0138 89.5696 20.214 93.6315C22.4988 97.6088 25.5452 99.5974 29.3533 99.5974Z" fill="#E99BFF"/>
</svg>
