<svg width="575" height="558" viewBox="0 0 575 558" fill="none" xmlns="http://www.w3.org/2000/svg">
<path d="M523.954 452.198C519.976 452.198 516.211 451.352 512.657 449.659C509.187 447.882 506.394 445.344 504.279 442.043C502.163 438.658 501.105 434.681 501.105 430.111C501.105 422.918 502.925 416.783 506.564 411.706C510.202 406.628 515.068 402.693 521.161 399.901C521.415 399.732 521.5 399.478 521.415 399.139L505.929 350.015L505.802 349.635C505.802 349.465 505.887 349.296 506.056 349.127C506.31 348.958 506.564 348.873 506.818 348.873H573.458C573.797 348.873 574.008 349 574.093 349.254C574.262 349.508 574.262 349.804 574.093 350.142L543.883 398.885C543.713 399.139 543.84 399.351 544.263 399.52C552.726 401.889 556.957 408.998 556.957 420.845C556.957 426.176 555.434 431.254 552.387 436.077C549.425 440.901 545.406 444.793 540.328 447.755C535.336 450.717 529.877 452.198 523.954 452.198Z" fill="#E99BFF"/>
<path d="M470.11 450.548C469.518 450.548 469.01 450.294 468.587 449.786L442.946 411.198C442.693 410.86 442.481 410.69 442.312 410.69C441.889 410.69 441.677 410.986 441.677 411.579V437.854C441.677 438.447 441.465 438.954 441.042 439.378L430.888 449.913C430.464 450.336 429.957 450.548 429.364 450.548H408.547C407.955 450.548 407.447 450.336 407.024 449.913L396.869 439.378C396.446 438.954 396.234 438.447 396.234 437.854V368.167C396.234 367.575 396.404 367.067 396.742 366.644L409.943 349.762C410.366 349.254 410.916 349 411.593 349H432.792C433.469 349 433.976 349.254 434.315 349.762L464.525 393.681C464.864 394.02 465.075 394.189 465.16 394.189C465.583 394.189 465.795 393.893 465.795 393.3V359.409C465.795 358.986 465.964 358.435 466.302 357.759L471.634 349.762C472.057 349.254 472.565 349 473.157 349H488.643C489.32 349 489.828 349.254 490.166 349.762L495.497 357.759C495.836 358.435 496.005 358.986 496.005 359.409V449.279C496.005 450.125 495.582 450.548 494.736 450.548H470.11Z" fill="#E99BFF"/>
<path d="M327.995 450.548C325.626 450.548 324.441 449.363 324.441 446.994V444.455C324.441 442.001 323.256 440.774 320.887 440.774H315.175C312.806 440.774 311.621 439.589 311.621 437.22V428.842C311.621 426.473 312.806 425.288 315.175 425.288H328.884C331.253 425.288 332.438 426.473 332.438 428.842V429.984C332.438 432.354 333.665 433.539 336.119 433.539H369.376C370.561 433.539 371.449 433.242 372.042 432.65C372.719 431.973 373.057 431.085 373.057 429.984V425.034C373.057 423.934 372.719 423.088 372.042 422.495C371.449 421.818 370.561 421.48 369.376 421.48H328.884C326.514 421.48 325.33 420.295 325.33 417.926V414.879C325.33 412.51 324.145 411.325 321.776 411.325H318.475C316.106 411.325 314.921 410.14 314.921 407.771V402.693C314.921 401.593 314.667 400.747 314.159 400.155C313.736 399.478 313.102 399.139 312.255 399.139C310.394 399.139 309.463 397.955 309.463 395.585V375.783C309.463 373.414 310.14 372.229 311.494 372.229C313.863 372.229 315.048 371.044 315.048 368.675V363.724C315.048 361.355 316.233 360.17 318.602 360.17H320.76C323.13 360.17 324.314 358.986 324.314 356.616V352.554C324.314 350.185 325.499 349 327.868 349H375.215C377.585 349 378.769 350.185 378.769 352.554V356.743C378.769 359.112 379.954 360.297 382.323 360.297C384.693 360.297 385.878 361.482 385.878 363.851V366.898C385.878 368.083 386.089 369.013 386.512 369.69C387.02 370.283 387.697 370.579 388.543 370.579C389.39 370.579 390.024 370.917 390.447 371.594C390.955 372.187 391.209 373.033 391.209 374.133V400.155C391.209 402.524 390.024 403.709 387.655 403.709C386.132 403.709 385.074 404.005 384.481 404.597C383.889 405.105 383.593 406.036 383.593 407.39V422.876C383.593 425.246 384.651 426.43 386.766 426.43C388.882 426.43 389.94 427.615 389.94 429.984V435.062C389.94 436.162 389.643 437.05 389.051 437.727C388.543 438.32 387.824 438.616 386.893 438.616C384.524 438.616 383.339 439.674 383.339 441.789C383.339 442.889 383 443.736 382.323 444.328C381.731 444.92 380.885 445.217 379.785 445.217C378.685 445.217 377.796 445.47 377.119 445.978C376.527 446.401 376.231 447.036 376.231 447.882C376.231 448.728 375.892 449.405 375.215 449.913C374.623 450.336 373.777 450.548 372.676 450.548H327.995ZM327.107 403.836C327.107 406.29 328.292 407.517 330.661 407.517H371.28C373.734 407.517 374.961 406.29 374.961 403.836V364.867C374.961 362.497 373.734 361.313 371.28 361.313H330.661C328.292 361.313 327.107 362.497 327.107 364.867V403.836Z" fill="#E99BFF"/>
<path d="M262.234 415.641L283.179 378.449L304.377 415.641L283.179 452.452L262.234 415.641ZM272.897 360.297L283.052 346.969L293.206 360.297L283.052 373.498L272.897 360.297Z" fill="#E99BFF"/>
<path d="M201.617 367.532H220.15V395.077H201.617V367.532ZM201.617 413.61H220.15V432.142H201.617V413.61ZM220.15 432.142H238.682V450.548H220.15V432.142ZM220.15 395.077H238.682V413.61H220.15V395.077ZM238.682 413.61H257.215V432.142H238.682V413.61ZM220.15 349H238.682V367.532H220.15V349ZM238.682 367.532H257.215V386.065H238.682V367.532Z" fill="#E99BFF"/>
<path d="M104.888 425.541C102.519 422.072 101.334 418.01 101.334 413.356C101.334 404.216 105.396 394.442 113.52 384.034C121.644 373.54 131.587 364.74 143.349 357.631C155.197 350.523 166.113 346.969 176.099 346.969C182.53 346.969 187.523 348.788 191.077 352.427C194.716 356.066 196.535 360.762 196.535 366.517C196.535 375.233 192.473 384.88 184.349 395.458C176.226 405.951 166.409 414.879 154.9 422.241C143.476 429.603 133.237 433.284 124.182 433.284C122.913 433.284 121.601 433.2 120.247 433.031V438.87H194.758V450.548H104.888V425.541ZM121.517 413.736C128.71 413.736 136.664 411.029 145.38 405.613C154.097 400.112 161.543 393.681 167.721 386.319C173.983 378.956 177.114 372.821 177.114 367.913C177.114 366.982 177.072 366.474 176.987 366.39C176.903 366.221 176.606 366.136 176.099 366.136C169.329 366.136 161.501 368.928 152.616 374.514C143.815 380.014 136.241 386.572 129.894 394.189C123.548 401.72 120.374 408.236 120.374 413.736H121.517Z" fill="#E99BFF"/>
<path d="M2.53906 424.526V384.415L23.1025 355.728H58.6443L72.6071 374.006V399.774H81.4925V375.022L65.4987 353.57V349H97.1055V450.548H69.9415L81.4925 437.22V423.892H72.6071V433.412L57.7557 450.548H24.2449L2.53906 424.526ZM31.3533 445.597C35.9229 445.597 40.7041 442.847 45.6969 437.347C50.7743 431.761 55.0055 424.357 58.3904 415.133C61.8599 405.909 63.5947 396.093 63.5947 385.684C63.5947 377.73 62.5369 371.637 60.4213 367.406C58.3058 363.174 55.217 361.059 51.1551 361.059C45.9085 361.059 40.7888 364.401 35.796 371.087C30.8032 377.772 26.7413 386.023 23.6102 395.839C20.4792 405.571 18.9137 414.625 18.9137 423.003C18.9137 430.027 20.0138 435.57 22.214 439.631C24.4988 443.609 27.5452 445.597 31.3533 445.597Z" fill="#E99BFF"/>
<path d="M497.977 286.814L502.8 275.517C500.854 273.74 499.881 271.455 499.881 268.663C499.881 265.701 500.981 263.247 503.181 261.3C505.466 259.354 508.301 258.381 511.686 258.381C514.986 258.381 517.694 259.312 519.809 261.173C521.925 263.035 522.983 265.447 522.983 268.409C522.983 271.117 522.052 273.401 520.19 275.263C518.413 277.04 516.044 278.098 513.082 278.437L506.735 287.957L497.977 286.814Z" fill="#FAB532"/>
<path d="M414.035 244.291H448.561V181.712H432.44V209.638H410.861V176H494.131V209.638H472.552V181.712H456.431V244.291H490.957V277.548H414.035V244.291Z" fill="#FAB532"/>
<path d="M303.023 277.548C302.854 277.548 302.77 277.463 302.77 277.294V176.127C302.77 175.958 302.854 175.873 303.023 175.873H315.59C315.759 175.873 315.844 175.958 315.844 176.127V197.071C315.844 197.156 315.844 197.24 315.844 197.325C315.928 197.325 316.013 197.283 316.098 197.198C318.552 192.036 321.514 188.059 324.983 185.266C328.537 182.474 332.768 181.077 337.677 181.077C346.054 181.077 352.443 185.309 356.844 193.771C361.329 202.149 363.571 214.546 363.571 230.963V252.542C363.571 252.711 363.656 252.796 363.825 252.796H381.596C381.681 252.796 381.723 252.796 381.723 252.796C381.808 252.711 381.808 252.626 381.723 252.542C376.899 245.856 373.049 239.044 370.172 232.105C367.295 225.166 365.856 217.042 365.856 207.734C365.856 200.795 366.702 194.956 368.395 190.217C370.172 185.393 372.499 181.839 375.376 179.554C378.338 177.185 381.681 176 385.404 176C392.005 176 397.04 179.512 400.509 186.536C404.064 193.559 405.841 202.529 405.841 213.446C405.841 223.347 404.529 233.248 401.906 243.148C399.282 252.965 395.559 264.347 390.735 277.294C390.651 277.463 390.524 277.548 390.355 277.548H351.639C351.47 277.548 351.386 277.463 351.386 277.294C351.386 274.671 351.47 271.074 351.639 266.505L351.893 254.7C351.893 243.191 350.624 233.417 348.085 225.378C345.547 217.338 341.315 213.319 335.392 213.319C331.922 213.319 329.341 214.757 327.649 217.635C326.041 220.427 325.237 224.024 325.237 228.424C325.237 233.078 325.999 237.563 327.522 241.879C329.13 246.11 331.499 251.315 334.63 257.492C337.084 262.57 338.861 266.378 339.961 268.916C341.062 271.455 342.035 274.248 342.881 277.294C342.966 277.379 342.966 277.463 342.881 277.548C342.881 277.548 342.839 277.548 342.754 277.548H303.023Z" fill="#FAB532"/>
<path d="M255.541 242.64L276.485 205.449L297.683 242.64L276.485 279.452L255.541 242.64ZM266.204 187.297L276.358 173.969L286.513 187.297L276.358 200.498L266.204 187.297Z" fill="#FAB532"/>
<path d="M192 68.6717L212.944 31.4798L234.142 68.6717L212.944 105.483L192 68.6717ZM202.663 13.3282L212.817 0L222.972 13.3282L212.817 26.5294L202.663 13.3282Z" fill="#4897F7"/>
<path d="M222.329 277.548C221.736 277.548 221.229 277.294 220.805 276.786L203.035 251.78C202.696 251.357 202.527 250.849 202.527 250.257V224.997C202.527 224.404 202.696 223.897 203.035 223.474L204.812 221.189C205.15 220.766 205.319 220.258 205.319 219.666V216.365C205.319 215.519 204.896 215.096 204.05 215.096H200.623C199.946 215.096 199.396 215.307 198.973 215.731L197.449 217.508C197.111 217.931 196.942 218.481 196.942 219.158V265.489C196.942 266.166 196.772 266.716 196.434 267.139L188.945 276.786C188.606 277.294 188.099 277.548 187.422 277.548H169.778C169.101 277.548 168.593 277.252 168.254 276.659L158.988 262.57C158.65 262.146 158.48 261.596 158.48 260.919V192.882C158.48 192.205 158.692 191.655 159.115 191.232L171.428 176.635C171.851 176.212 172.359 176 172.951 176H232.357C233.034 176 233.584 176.212 234.007 176.635L248.477 192.882C248.9 193.475 249.112 194.025 249.112 194.532V221.189C249.112 221.612 248.9 222.12 248.477 222.712L237.688 234.644C237.095 235.236 237.053 235.829 237.561 236.421L252.539 255.461C252.962 255.969 253.047 256.561 252.793 257.238L242.892 276.659C242.638 277.252 242.131 277.548 241.369 277.548H222.329Z" fill="#FAB532"/>
<path d="M98.5893 212.684C96.3891 212.515 94.612 212.43 93.258 212.43C87.9268 212.43 85.2611 214.08 85.2611 217.38C85.2611 219.073 85.8112 220.258 86.9113 220.935C88.0114 221.527 89.7038 222.077 91.9887 222.585C94.3581 223.093 96.2621 223.685 97.7007 224.362C99.1393 225.039 100.366 226.224 101.382 227.916C102.482 229.524 103.032 231.893 103.032 235.024C103.032 238.917 102.143 242.006 100.366 244.291C98.6739 246.491 95.966 248.86 92.2425 251.399C88.2653 254.107 85.3881 256.773 83.611 259.396C81.8339 261.935 80.9453 265.32 80.9453 269.551L80.8184 277.548H67.7441L67.6172 269.931C67.6172 262.231 68.1672 257.111 69.2673 254.572C69.8597 253.218 70.8329 251.949 72.1868 250.764C73.5408 249.58 75.6141 248.014 78.4066 246.068C81.707 243.783 84.2033 241.794 85.8958 240.102C87.5883 238.409 88.4345 236.59 88.4345 234.644C88.4345 232.867 87.7575 231.597 86.4035 230.836C85.1342 230.074 83.1456 229.312 80.4376 228.551C78.1528 227.874 76.3334 227.281 74.9794 226.774C73.6254 226.181 72.4407 225.293 71.4252 224.108C70.4944 222.839 70.0289 221.146 70.0289 219.031C70.0289 215.815 71.1291 213.022 73.3293 210.653C75.5295 208.283 78.2374 206.506 81.4531 205.322C84.6688 204.052 87.7998 203.418 90.8463 203.418L74.0909 183.235C86.2766 177.142 97.9969 174.096 109.252 174.096C116.445 174.096 123.384 175.407 130.069 178.031C136.754 180.569 142.297 184.885 146.698 190.978C151.183 197.071 153.425 205.068 153.425 214.969C153.425 224.785 151.394 232.655 147.332 238.579C143.355 244.502 138.405 249.537 132.481 253.684L98.5893 212.684ZM134.004 233.628C137.643 228.551 139.462 222.331 139.462 214.969C139.462 205.406 136.627 198.552 130.958 194.405C125.288 190.174 118.053 188.059 109.252 188.059C105.275 188.059 101.297 188.524 97.3199 189.455L134.004 233.628Z" fill="#FAB532"/>
<path d="M2.53906 249.368H23.4833V238.96H2.53906V208.368L27.5452 176H62.5792V211.796H34.5266V222.204H62.4523V247.591L45.57 277.548H2.53906V249.368Z" fill="#FAB532"/>
<path d="M388.615 113.814L393.439 102.517C391.492 100.74 390.519 98.4551 390.519 95.6626C390.519 92.7008 391.619 90.2467 393.82 88.3004C396.104 86.354 398.939 85.3809 402.324 85.3809C405.624 85.3809 408.332 86.3117 410.448 88.1734C412.564 90.0351 413.621 92.4469 413.621 95.4087C413.621 98.1166 412.691 100.401 410.829 102.263C409.052 104.04 406.682 105.098 403.72 105.437L397.374 114.957L388.615 113.814Z" fill="#4897F7"/>
<path d="M338.316 104.548C338.316 103.194 338.866 101.84 339.967 100.486C341.067 99.132 342.421 98.0742 344.028 97.3126V10.2353C342.421 9.47367 341.067 8.41588 339.967 7.06191C338.866 5.70794 338.316 4.35397 338.316 3H357.484C357.484 4.35397 356.934 5.70794 355.833 7.06191C354.733 8.41588 353.379 9.47367 351.771 10.2353V35.2414C362.519 28.8101 368.908 20.4324 370.939 10.1083C369.415 9.34674 368.104 8.28894 367.004 6.93497C365.988 5.581 365.48 4.26935 365.48 3H384.775C384.775 4.35397 384.14 5.75025 382.871 7.18885C381.686 8.62744 380.247 9.68523 378.555 10.3622C376.439 20.8555 371.193 29.8679 362.815 37.3993C368.654 41.1228 372.8 46.9194 375.254 54.7894C377.708 62.6594 378.936 72.0525 378.936 82.9689V97.3126C380.543 98.0742 381.897 99.132 382.997 100.486C384.182 101.755 384.775 103.109 384.775 104.548H365.48C365.48 103.109 366.031 101.755 367.131 100.486C368.315 99.132 369.712 98.0742 371.319 97.3126V81.8265C371.319 72.2641 370.008 63.971 367.384 56.9473C364.761 49.9236 361.165 45.1424 356.595 42.6037L351.771 45.1424V97.3126C353.379 98.0742 354.733 99.132 355.833 100.486C356.934 101.84 357.484 103.194 357.484 104.548H338.316Z" fill="#4897F7"/>
<path d="M254.693 82.7151L242 47.9349L270.941 3H333.266L304.325 47.9349L317.018 82.7151L309.402 104.548H286.808L294.424 82.7151L281.731 47.9349L290.87 34.3529H282.238L272.972 47.9349L285.666 82.7151L278.049 104.548H247.077L254.693 82.7151Z" fill="#4897F7"/>
<path d="M144.615 101.882C145.377 96.3817 145.758 91.6005 145.758 87.5386C145.758 80.3456 144.404 74.3797 141.696 69.6408C138.988 64.8173 134.164 62.4055 127.225 62.4055C122.148 62.4055 118.594 63.5479 116.563 65.8327C114.532 68.0329 113.22 70.5716 112.628 73.4488L104.377 73.068L98.4111 104.548L91.3027 103.152L110.216 3L117.324 4.39628L113.262 25.5944C119.101 23.0557 125.067 21.7864 131.16 21.7864C141.23 21.7864 150.243 24.9597 158.197 31.3065C166.237 37.6532 172.456 46.1155 176.857 56.6934C181.342 67.1867 183.584 78.4416 183.584 90.4581C183.584 93.9276 183.33 98.6242 182.823 104.548H144.235L144.615 101.882Z" fill="#4897F7"/>
<path d="M5.71243 71.2909H40.2387V8.71206H24.118V36.6377H2.53906V3H85.8083V36.6377H64.2294V8.71206H48.1087V71.2909H82.6349V104.548H5.71243V71.2909Z" fill="#4897F7"/>
</svg>
