<svg width="122" height="119" viewBox="0 0 122 119" fill="none" xmlns="http://www.w3.org/2000/svg">
<path d="M41.2403 100.331C43.6243 90.1353 37.2913 79.937 27.0951 77.553C16.8989 75.169 6.70059 81.5021 4.3166 91.6983C1.93261 101.894 8.26566 112.093 18.4619 114.477C28.6581 116.861 38.8563 110.528 41.2403 100.331Z" fill="#1C52E6"/>
<path d="M41.2423 27.1459C43.6263 16.9497 37.2932 6.75146 27.097 4.36748C16.9008 1.98349 6.70254 8.31654 4.31855 18.5127C1.93456 28.7089 8.26761 38.9072 18.4638 41.2912C28.66 43.6752 38.8583 37.3421 41.2423 27.1459Z" fill="#1C52E6"/>
<path d="M41.5031 62.4474C43.17 52.1097 36.141 42.3781 25.8033 40.7111C15.4657 39.0442 5.73401 46.0732 4.06707 56.4109C2.40014 66.7486 9.42917 76.4802 19.7668 78.1472C30.1045 79.8141 39.8362 72.7851 41.5031 62.4474Z" fill="#1C52E6"/>
<path d="M62.1128 78.3083C72.5556 77.5378 80.3965 68.4475 79.626 58.0047C78.8555 47.5619 69.7653 39.721 59.3224 40.4915C48.8796 41.2621 41.0387 50.3523 41.8092 60.7951C42.5798 71.2379 51.67 79.0788 62.1128 78.3083Z" fill="#6B8EEF"/>
<path d="M62.1128 114.911C72.5556 114.14 80.3965 105.05 79.626 94.6073C78.8555 84.1645 69.7653 76.3235 59.3224 77.0941C48.8796 77.8646 41.0387 86.9548 41.8092 97.3976C42.5798 107.84 51.67 115.681 62.1128 114.911Z" fill="#6B8EEF"/>
<path d="M61.1237 41.7791C71.5923 41.547 79.8907 32.8724 79.6586 22.4037C79.4265 11.9351 70.7519 3.63676 60.2833 3.86884C49.8146 4.10092 41.5163 12.7756 41.7483 23.2442C41.9804 33.7128 50.6551 42.0112 61.1237 41.7791Z" fill="#6B8EEF"/>
<path d="M117.082 100.422C119.51 90.236 113.222 80.0102 103.036 77.5817C92.8502 75.1533 82.6244 81.4418 80.1959 91.6275C77.7675 101.813 84.056 112.039 94.2417 114.467C104.427 116.896 114.653 110.607 117.082 100.422Z" fill="#1C52E6"/>
<path d="M117.086 27.2371C119.514 17.0514 113.226 6.8256 103.04 4.39714C92.8541 1.96869 82.6283 8.25718 80.1998 18.4429C77.7714 28.6286 84.0599 38.8544 94.2456 41.2829C104.431 43.7113 114.657 37.4228 117.086 27.2371Z" fill="#1C52E6"/>
<path d="M117.076 63.8279C119.504 53.6422 113.216 43.4164 103.03 40.988C92.8443 38.5595 82.6185 44.848 80.1901 55.0337C77.7616 65.2194 84.0501 75.4452 94.2358 77.8737C104.422 80.3021 114.647 74.0136 117.076 63.8279Z" fill="#1C52E6"/>
</svg>
