<svg width="112" height="112" viewBox="0 0 112 112" fill="none" xmlns="http://www.w3.org/2000/svg">
<path d="M55.5539 38.684C49.6785 38.684 44.9141 33.9196 44.9141 28.0441V0H66.1849V28.0441C66.1849 33.9196 61.4205 38.684 55.545 38.684H55.5539Z" fill="#7400F0"/>
<path d="M55.5539 72.4346C49.6785 72.4346 44.9141 77.199 44.9141 83.0744V111.119H66.1849V83.0744C66.1849 77.199 61.4205 72.4346 55.545 72.4346H55.5539Z" fill="#7400F0"/>
<path d="M43.6266 43.6266C39.4755 47.7776 32.7378 47.7776 28.5868 43.6266L8.75586 23.7957L23.7957 8.75586L43.6266 28.5867C47.7776 32.7378 47.7776 39.4755 43.6266 43.6266Z" fill="#7400F0"/>
<path d="M67.4922 67.4942C63.3411 71.6452 63.3411 78.3829 67.4922 82.534L87.3231 102.365L102.363 87.325L82.532 67.4942C78.381 63.3431 71.6433 63.3431 67.4922 67.4942Z" fill="#7400F0"/>
<path d="M38.684 55.5636C38.684 61.4391 33.9196 66.2035 28.0441 66.2035H0V44.9326H28.0441C33.9196 44.9326 38.684 49.697 38.684 55.5725V55.5636Z" fill="#7400F0"/>
<path d="M72.4336 55.5636C72.4336 61.4391 77.198 66.2035 83.0735 66.2035H111.118V44.9326H83.0735C77.198 44.9326 72.4336 49.697 72.4336 55.5725V55.5636Z" fill="#7400F0"/>
<path d="M43.6266 67.4942C47.7776 71.6452 47.7776 78.3829 43.6266 82.534L23.7957 102.365L8.75586 87.325L28.5868 67.4942C32.7378 63.3431 39.4755 63.3431 43.6266 67.4942Z" fill="#7400F0"/>
<path d="M67.4922 43.6266C71.6433 47.7776 78.381 47.7776 82.532 43.6266L102.363 23.7957L87.3231 8.75586L67.4922 28.5867C63.3411 32.7378 63.3411 39.4755 67.4922 43.6266Z" fill="#7400F0"/>
</svg>
