<svg width="521" height="115" viewBox="0 0 521 115" fill="none" xmlns="http://www.w3.org/2000/svg">
<path d="M495.977 113.814L500.8 102.517C498.854 100.74 497.881 98.4551 497.881 95.6626C497.881 92.7008 498.981 90.2467 501.181 88.3004C503.466 86.354 506.301 85.3809 509.686 85.3809C512.986 85.3809 515.694 86.3117 517.809 88.1734C519.925 90.0351 520.983 92.4469 520.983 95.4087C520.983 98.1166 520.052 100.401 518.19 102.263C516.413 104.04 514.044 105.098 511.082 105.437L504.735 114.957L495.977 113.814Z" fill="#FAB532"/>
<path d="M412.035 71.2909H446.561V8.71207H430.44V36.6377H408.861V3H492.131V36.6377H470.552V8.71207H454.431V71.2909H488.957V104.548H412.035V71.2909Z" fill="#FAB532"/>
<path d="M301.023 104.548C300.854 104.548 300.77 104.463 300.77 104.294V3.12692C300.77 2.95767 300.854 2.87305 301.023 2.87305H313.59C313.759 2.87305 313.844 2.95767 313.844 3.12692V24.0712C313.844 24.1558 313.844 24.2404 313.844 24.325C313.928 24.325 314.013 24.2827 314.098 24.1981C316.552 19.0361 319.514 15.0588 322.983 12.2662C326.537 9.47365 330.768 8.07738 335.677 8.07738C344.054 8.07738 350.443 12.3085 354.844 20.7709C359.329 29.1486 361.571 41.5458 361.571 57.9628V79.5417C361.571 79.7109 361.656 79.7955 361.825 79.7955H379.596C379.681 79.7955 379.723 79.7955 379.723 79.7955C379.808 79.7109 379.808 79.6263 379.723 79.5417C374.899 72.8564 371.049 66.0443 368.172 59.1052C365.295 52.1661 363.856 44.0422 363.856 34.7337C363.856 27.7946 364.702 21.9556 366.395 17.2167C368.172 12.3931 370.499 8.83898 373.376 6.55415C376.338 4.1847 379.681 2.99998 383.404 2.99998C390.005 2.99998 395.04 6.51184 398.509 13.5356C402.064 20.5593 403.841 29.5294 403.841 40.4458C403.841 50.3467 402.529 60.2476 399.906 70.1485C397.282 79.9648 393.559 91.3466 388.735 104.294C388.651 104.463 388.524 104.548 388.355 104.548H349.639C349.47 104.548 349.386 104.463 349.386 104.294C349.386 101.671 349.47 98.0742 349.639 93.5045L349.893 81.6996C349.893 70.1908 348.624 60.4168 346.085 52.3776C343.547 44.3384 339.315 40.3188 333.392 40.3188C329.922 40.3188 327.341 41.7574 325.649 44.6346C324.041 47.4272 323.237 51.0237 323.237 55.4241C323.237 60.0783 323.999 64.5634 325.522 68.8792C327.13 73.1103 329.499 78.3147 332.63 84.4921C335.084 89.5695 336.861 93.3776 337.961 95.9163C339.062 98.455 340.035 101.248 340.881 104.294C340.966 104.379 340.966 104.463 340.881 104.548C340.881 104.548 340.839 104.548 340.754 104.548H301.023Z" fill="#FAB532"/>
<path d="M253.541 69.6405L274.485 32.4486L295.683 69.6405L274.485 106.452L253.541 69.6405ZM264.204 14.2969L274.358 0.96875L284.513 14.2969L274.358 27.4981L264.204 14.2969Z" fill="#FAB532"/>
<path d="M220.329 104.548C219.736 104.548 219.229 104.294 218.805 103.786L201.035 78.7801C200.696 78.357 200.527 77.8492 200.527 77.2569V51.9968C200.527 51.4045 200.696 50.8967 201.035 50.4736L202.812 48.1888C203.15 47.7657 203.319 47.2579 203.319 46.6656V43.3653C203.319 42.519 202.896 42.0959 202.05 42.0959H198.623C197.946 42.0959 197.396 42.3075 196.973 42.7306L195.449 44.5077C195.111 44.9308 194.942 45.4809 194.942 46.1578V92.489C194.942 93.166 194.772 93.7161 194.434 94.1392L186.945 103.786C186.606 104.294 186.099 104.548 185.422 104.548H167.778C167.101 104.548 166.593 104.252 166.254 103.659L156.988 89.5695C156.65 89.1464 156.48 88.5964 156.48 87.9194V19.8823C156.48 19.2053 156.692 18.6553 157.115 18.2322L169.428 3.63467C169.851 3.21156 170.359 3 170.951 3H230.357C231.034 3 231.584 3.21156 232.007 3.63467L246.477 19.8823C246.9 20.4747 247.112 21.0247 247.112 21.5325V48.1888C247.112 48.6119 246.9 49.1196 246.477 49.712L235.688 61.6439C235.095 62.2363 235.053 62.8286 235.561 63.421L250.539 82.4612C250.962 82.9689 251.047 83.5613 250.793 84.2383L240.892 103.659C240.638 104.252 240.131 104.548 239.369 104.548H220.329Z" fill="#FAB532"/>
<path d="M96.5893 39.6839C94.3891 39.5146 92.612 39.43 91.258 39.43C85.9268 39.43 83.2611 41.0802 83.2611 44.3805C83.2611 46.0729 83.8112 47.2577 84.9113 47.9347C86.0114 48.527 87.7038 49.0771 89.9887 49.5848C92.3581 50.0925 94.2621 50.6849 95.7007 51.3619C97.1393 52.0389 98.3664 53.2236 99.3819 54.916C100.482 56.5239 101.032 58.8934 101.032 62.0244C101.032 65.9171 100.143 69.0058 98.3664 71.2906C96.6739 73.4909 93.966 75.8603 90.2425 78.399C86.2653 81.107 83.3881 83.7726 81.611 86.3959C79.8339 88.9346 78.9453 92.3195 78.9453 96.5507L78.8184 104.548H65.7441L65.6172 96.9315C65.6172 89.2308 66.1672 84.1111 67.2673 81.5724C67.8597 80.2184 68.8329 78.9491 70.1868 77.7643C71.5408 76.5796 73.6141 75.0141 76.4066 73.0677C79.707 70.7829 82.2033 68.7943 83.8958 67.1018C85.5883 65.4093 86.4345 63.59 86.4345 61.6436C86.4345 59.8665 85.7575 58.5972 84.4035 57.8356C83.1342 57.074 81.1455 56.3124 78.4376 55.5508C76.1528 54.8738 74.3334 54.2814 72.9794 53.7737C71.6254 53.1813 70.4407 52.2927 69.4252 51.108C68.4944 49.8387 68.0289 48.1462 68.0289 46.0306C68.0289 42.8149 69.1291 40.0224 71.3293 37.6529C73.5295 35.2835 76.2374 33.5064 79.4531 32.3217C82.6688 31.0523 85.7998 30.4176 88.8463 30.4176L72.0909 10.235C84.2766 4.14213 95.9969 1.0957 107.252 1.0957C114.445 1.0957 121.384 2.40735 128.069 5.03067C134.754 7.56937 140.297 11.8852 144.698 17.978C149.183 24.0709 151.425 32.0678 151.425 41.9687C151.425 51.785 149.394 59.655 145.332 65.5786C141.355 71.5022 136.405 76.5373 130.481 80.6838L96.5893 39.6839ZM132.004 60.6281C135.643 55.5508 137.462 49.3309 137.462 41.9687C137.462 32.4063 134.627 25.5518 128.958 21.4053C123.288 17.1741 116.053 15.0585 107.252 15.0585C103.275 15.0585 99.2972 15.524 95.3199 16.4548L132.004 60.6281Z" fill="#FAB532"/>
<path d="M0.539062 76.3683H21.4833V65.9597H0.539062V35.3684L25.5452 3H60.5792V38.7956H32.5266V49.2043H60.4523V74.5912L43.57 104.548H0.539062V76.3683Z" fill="#FAB532"/>
</svg>