<svg width="412" height="115" viewBox="0 0 412 115" fill="none" xmlns="http://www.w3.org/2000/svg">
    <path d="M190 68.6717L210.944 31.4798L232.142 68.6717L210.944 105.483L190 68.6717ZM200.663 13.3282L210.817 0L220.972 13.3282L210.817 26.5294L200.663 13.3282Z" fill="#4897F7"/>
    <path d="M386.615 113.814L391.439 102.517C389.492 100.74 388.519 98.4551 388.519 95.6626C388.519 92.7008 389.619 90.2467 391.82 88.3004C394.104 86.354 396.939 85.3809 400.324 85.3809C403.624 85.3809 406.332 86.3117 408.448 88.1734C410.564 90.0351 411.621 92.4469 411.621 95.4087C411.621 98.1166 410.691 100.401 408.829 102.263C407.052 104.04 404.682 105.098 401.72 105.437L395.374 114.957L386.615 113.814Z" fill="#4897F7"/>
    <path d="M336.316 104.548C336.316 103.194 336.866 101.84 337.967 100.486C339.067 99.132 340.421 98.0742 342.028 97.3126V10.2353C340.421 9.47367 339.067 8.41588 337.967 7.06191C336.866 5.70794 336.316 4.35397 336.316 3H355.484C355.484 4.35397 354.934 5.70794 353.833 7.06191C352.733 8.41588 351.379 9.47367 349.771 10.2353V35.2414C360.519 28.8101 366.908 20.4324 368.939 10.1083C367.415 9.34674 366.104 8.28895 365.004 6.93497C363.988 5.581 363.48 4.26935 363.48 3H382.775C382.775 4.35397 382.14 5.75025 380.871 7.18885C379.686 8.62744 378.247 9.68523 376.555 10.3622C374.439 20.8555 369.193 29.8679 360.815 37.3993C366.654 41.1228 370.8 46.9194 373.254 54.7894C375.708 62.6594 376.936 72.0525 376.936 82.9689V97.3126C378.543 98.0742 379.897 99.132 380.997 100.486C382.182 101.755 382.775 103.109 382.775 104.548H363.48C363.48 103.109 364.031 101.755 365.131 100.486C366.315 99.132 367.712 98.0742 369.319 97.3126V81.8265C369.319 72.2641 368.008 63.971 365.384 56.9473C362.761 49.9236 359.165 45.1424 354.595 42.6037L349.771 45.1424V97.3126C351.379 98.0742 352.733 99.132 353.833 100.486C354.934 101.84 355.484 103.194 355.484 104.548H336.316Z" fill="#4897F7"/>
    <path d="M252.693 82.7151L240 47.9349L268.941 3H331.266L302.325 47.9349L315.018 82.7151L307.402 104.548H284.808L292.424 82.7151L279.731 47.9349L288.87 34.3529H280.238L270.972 47.9349L283.666 82.7151L276.049 104.548H245.077L252.693 82.7151Z" fill="#4897F7"/>
    <path d="M142.615 101.882C143.377 96.3817 143.758 91.6005 143.758 87.5386C143.758 80.3456 142.404 74.3797 139.696 69.6408C136.988 64.8173 132.164 62.4055 125.225 62.4055C120.148 62.4055 116.594 63.5479 114.563 65.8327C112.532 68.0329 111.22 70.5716 110.628 73.4488L102.377 73.068L96.4111 104.548L89.3027 103.152L108.216 3L115.324 4.39628L111.262 25.5944C117.101 23.0557 123.067 21.7864 129.16 21.7864C139.23 21.7864 148.243 24.9597 156.197 31.3065C164.237 37.6532 170.456 46.1155 174.857 56.6934C179.342 67.1867 181.584 78.4416 181.584 90.4581C181.584 93.9276 181.33 98.6242 180.823 104.548H142.235L142.615 101.882Z" fill="#4897F7"/>
    <path d="M3.71243 71.2909H38.2387V8.71206H22.118V36.6377H0.539062V3H83.8083V36.6377H62.2294V8.71206H46.1087V71.2909H80.6349V104.548H3.71243V71.2909Z" fill="#4897F7"/>
</svg>