<svg width="108" height="112" viewBox="0 0 108 112" fill="none" xmlns="http://www.w3.org/2000/svg">
<path fill-rule="evenodd" clip-rule="evenodd" d="M24.4189 110.905C25.5833 111.03 26.65 111.11 27.7878 111.11L27.7966 111.092C32.5138 111.092 36.935 109.928 40.8201 107.87C41.6482 108.312 42.5013 108.712 43.3755 109.069C41.7286 108.397 40.1567 107.569 38.6857 106.603C38.6555 106.583 38.6228 106.559 38.5895 106.535C38.5345 106.495 38.4778 106.453 38.4279 106.425C38.2067 106.28 37.9854 106.125 37.7657 105.972C37.5971 105.854 37.4295 105.737 37.2635 105.625C37.1035 105.545 36.9524 105.421 36.7924 105.261C36.7561 105.233 36.72 105.205 36.6842 105.177C36.3606 104.925 36.0565 104.688 35.7524 104.408C35.4002 104.119 35.087 103.83 34.7642 103.532C34.6798 103.454 34.5946 103.376 34.508 103.297C34.0902 102.905 33.708 102.514 33.3435 102.105C32.9524 101.688 32.588 101.279 32.2502 100.834C31.8858 100.39 31.548 99.9544 31.2102 99.4833C30.2502 98.1589 29.4236 96.7367 28.7214 95.2611C28.6414 95.1811 28.588 95.11 28.588 95.0034C28.3836 94.5411 28.1703 94.0434 27.9658 93.5545C27.3969 92.1056 26.9258 90.5945 26.6147 89.039C26.5347 88.8079 26.4814 88.5679 26.4547 88.3368L26.4378 88.2337C26.3636 87.7814 26.2916 87.3423 26.2503 86.8879C26.2236 86.8346 26.2236 86.7812 26.2236 86.7279C26.181 86.337 26.1383 85.9233 26.0957 85.5096C26.085 85.406 26.0743 85.3023 26.0636 85.199C25.9303 83.2524 26.0103 81.3591 26.2681 79.5191C26.4725 78.0169 26.7836 76.5591 27.2547 75.1636C27.4592 74.4614 27.6992 73.7592 27.9836 73.0658C29.0236 70.417 30.4725 68.0081 32.2324 65.8304C32.2324 65.8304 32.2591 65.8304 32.2591 65.8037C32.988 64.9504 33.7346 64.1148 34.5435 63.3415C35.7346 62.1771 37.0324 61.1371 38.4102 60.2038C38.8013 59.946 39.1657 59.6615 39.4768 59.3238C39.939 58.8082 40.2768 58.2304 40.5435 57.5905C40.7746 56.9682 40.9079 56.2927 40.9079 55.5905C40.9079 54.426 40.5435 53.3061 39.8946 52.3727C39.7879 52.195 39.6635 52.0083 39.4768 51.8572C39.3435 51.6794 39.1657 51.4927 38.9879 51.3683C38.8368 51.2172 38.6768 51.0839 38.499 50.9772C37.5657 50.355 36.6591 49.6794 35.8057 48.9506C35.7791 48.9506 35.7524 48.9506 35.7524 48.9239C33.6547 47.0839 31.8147 44.9862 30.3036 42.6217C30.3036 42.6217 30.2769 42.6217 30.2769 42.5951C29.3969 41.1729 28.6147 39.6618 27.9925 38.0796C27.7347 37.4307 27.5036 36.7818 27.2903 36.0796C26.8014 34.5507 26.4636 32.9952 26.2503 31.3863C26.0903 30.2219 26.0192 29.0308 26.0192 27.8308C26.0192 27.2086 26.0458 26.5864 26.0725 25.9908C26.1258 25.4486 26.1792 24.9242 26.2325 24.4086C26.2325 24.3553 26.2325 24.3019 26.2592 24.2753C26.2858 23.9375 26.3392 23.5997 26.3925 23.262C26.4058 23.182 26.4192 23.1108 26.4325 23.0397C26.4458 22.9686 26.4592 22.8975 26.4725 22.8175L26.4725 22.8174C26.5259 22.5597 26.5792 22.3019 26.6325 22.062C26.7125 21.6442 26.8103 21.2353 26.917 20.8175C26.9717 20.6322 27.0253 20.4437 27.0794 20.2539C27.1834 19.8884 27.2888 19.518 27.4058 19.1553C27.5125 18.7909 27.6369 18.3998 27.7969 18.0442C27.8588 17.9101 27.9088 17.7671 27.9606 17.6185C27.9981 17.511 28.0366 17.4006 28.0814 17.2887C28.1569 17.1065 28.2347 16.9309 28.3125 16.7554C28.3903 16.5798 28.468 16.4043 28.5436 16.222C28.5836 16.1331 28.628 16.0487 28.6725 15.9643C28.7169 15.8798 28.7614 15.7954 28.8014 15.7065C28.9791 15.2887 29.1925 14.8798 29.4236 14.4887C29.9658 13.5021 30.5614 12.5421 31.2102 11.6354C33.1302 8.95101 35.5302 6.63992 38.2502 4.80883C38.2771 4.78962 38.3023 4.77041 38.3266 4.75191C38.3585 4.72762 38.3888 4.70458 38.419 4.68439C38.4492 4.66427 38.4819 4.64034 38.5153 4.61597C38.5703 4.57575 38.627 4.53429 38.6768 4.50662C42.1523 2.19553 46.1701 0.693325 50.4189 0.204442C51.5833 0.0711159 52.6766 6.01853e-06 53.7876 0C58.4907 0.0230169 62.9157 1.18507 66.7939 3.23466C66.794 3.23465 66.794 3.23464 66.794 3.23462C67.4089 3.5596 68.0101 3.9069 68.5965 4.27551C68.6498 4.32884 68.7031 4.38217 68.7742 4.40884C74.1164 7.83102 78.1875 13.0221 80.1874 19.1642C80.3652 19.7064 80.5252 20.2753 80.6763 20.8264C81.1208 22.5153 81.4052 24.2486 81.503 26.0353C81.5297 26.6041 81.5563 27.173 81.5563 27.7686V27.8219C81.5563 33.8396 79.6097 39.4395 76.3475 43.9728C74.3742 46.6661 71.9387 49.0305 69.1387 50.8705C68.5698 51.2616 68.072 51.7505 67.6898 52.3194C67.7165 52.3461 67.6898 52.3461 67.6898 52.3461C67.4054 52.7105 67.2009 53.1283 67.0676 53.5638C66.9519 53.8431 66.8613 54.1385 66.7965 54.4428C66.7965 54.4427 66.7965 54.4426 66.7964 54.4425C66.7169 54.8162 66.6764 55.2034 66.6764 55.5905C66.6764 55.9853 66.7171 56.3709 66.7958 56.7439C66.7958 56.7438 66.7958 56.7436 66.7959 56.7435C66.9971 57.6975 67.4468 58.5685 68.0987 59.2971C68.4098 59.6349 68.7476 59.9193 69.1387 60.1771C70.5431 61.1104 71.8587 62.1771 73.0498 63.3682C73.8497 64.1504 74.6053 64.9504 75.3342 65.8037C75.3075 65.8304 75.3342 65.8304 75.3342 65.8304C77.0942 68.0081 78.5519 70.417 79.583 73.0658C80.8541 76.2302 81.5563 79.7058 81.5563 83.3324C81.5563 83.9013 81.5297 84.4701 81.503 85.0212C81.4789 85.5836 81.4112 86.146 81.3459 86.6888C81.339 86.7465 81.3321 86.804 81.3252 86.8612C81.2452 87.4568 81.1652 88.0257 81.0408 88.5945C80.8363 89.7856 80.5252 90.9323 80.1608 92.0434C79.983 92.5589 79.7963 93.0567 79.5919 93.5723C79.2008 94.5856 78.7386 95.5989 78.2141 96.55C78.1963 96.5824 78.1784 96.6148 78.1605 96.6472C77.8938 97.1313 77.624 97.6207 77.3075 98.0789C75.2097 101.394 72.4098 104.248 69.1387 106.399C68.9076 106.55 68.6943 106.71 68.5165 106.888C67.9618 107.234 67.3945 107.561 66.8152 107.868C66.8152 107.868 66.8152 107.868 66.8152 107.868C66.6411 107.96 66.466 108.05 66.2898 108.139C66.466 108.05 66.6411 107.96 66.8152 107.868C69.7605 109.44 73.0223 110.492 76.4267 110.905C77.5912 111.03 78.6578 111.11 79.7956 111.11L79.7867 111.092C85.2088 111.092 90.2399 109.554 94.5154 106.888C94.6932 106.71 94.9065 106.55 95.1376 106.399C98.4087 104.248 101.209 101.394 103.306 98.0789C103.623 97.6207 103.893 97.1313 104.159 96.6472L104.213 96.55C104.738 95.5989 105.2 94.5856 105.591 93.5723C105.795 93.0567 105.982 92.5589 106.16 92.0434C106.524 90.9323 106.835 89.7856 107.04 88.5945C107.164 88.0257 107.244 87.4568 107.324 86.8612L107.345 86.6883C107.41 86.1458 107.478 85.5835 107.502 85.0212C107.529 84.4701 107.555 83.9013 107.555 83.3324C107.555 79.7058 106.853 76.2302 105.582 73.0658C104.551 70.417 103.093 68.0081 101.333 65.8304C101.333 65.8304 101.306 65.8304 101.333 65.8037C100.604 64.9504 99.8487 64.1504 99.0487 63.3682C97.8576 62.1771 96.542 61.1104 95.1376 60.1771C94.7465 59.9193 94.4087 59.6349 94.0976 59.2971C93.191 58.2838 92.6754 56.9949 92.6754 55.5905C92.6754 54.8883 92.8088 54.186 93.0665 53.5638C93.1999 53.1283 93.4043 52.7105 93.6887 52.3461C93.6887 52.3461 93.7154 52.3461 93.6887 52.3194C94.071 51.7505 94.5687 51.2616 95.1376 50.8705C97.9376 49.0305 100.373 46.6661 102.346 43.9728C105.609 39.4395 107.555 33.8396 107.555 27.8219V27.7686C107.555 27.173 107.529 26.6041 107.502 26.0353C107.404 24.2486 107.12 22.5153 106.675 20.8264C106.524 20.2753 106.364 19.7064 106.186 19.1642C104.186 13.0221 100.115 7.83102 94.7732 4.40884C94.7021 4.38217 94.6487 4.32884 94.5954 4.27551C90.311 1.5822 85.2355 0.0266664 79.7867 0C78.6756 0 77.5823 0.0711103 76.4178 0.204442C73.0073 0.596861 69.7458 1.64217 66.794 3.23462C62.9158 1.18506 58.4909 0.0230168 53.7878 0C53.7877 0 53.7877 0 53.7876 0C52.6765 0 51.5832 0.0711103 50.4188 0.204442C47.0081 0.596882 43.7464 1.64227 40.7945 3.23487C36.9162 1.18515 32.491 0.0230177 27.7878 0C26.6767 0 25.5833 0.0711103 24.4189 0.204442C20.1701 0.702214 16.1523 2.20442 12.6679 4.50662C12.6181 4.53429 12.5614 4.57575 12.5064 4.61597L12.5064 4.616C12.473 4.64036 12.4403 4.66427 12.4102 4.68439C12.3799 4.70456 12.3496 4.7276 12.3177 4.75187L12.3177 4.75192L12.3177 4.75192C12.2934 4.77041 12.2682 4.78962 12.2413 4.80883C9.5213 6.63992 7.12133 8.95101 5.20135 11.6354C4.55247 12.5421 3.95692 13.5021 3.4147 14.4887C3.18359 14.8798 2.97026 15.2887 2.79249 15.7065C2.75249 15.7954 2.70804 15.8798 2.6636 15.9643L2.66359 15.9643C2.61915 16.0487 2.57471 16.1332 2.53471 16.222C2.45916 16.4043 2.38138 16.5798 2.3036 16.7554L2.30356 16.7555C2.2258 16.931 2.14804 17.1065 2.0725 17.2887C2.02773 17.4006 1.98922 17.511 1.95172 17.6184L1.95171 17.6185L1.95171 17.6185C1.89987 17.7671 1.84994 17.9101 1.78805 18.0442C1.62806 18.3998 1.50361 18.7909 1.39695 19.1553C1.27995 19.518 1.1745 19.8884 1.07047 20.2538L1.07046 20.2539C1.01642 20.4437 0.962762 20.6322 0.908064 20.8175C0.801398 21.2353 0.703622 21.6442 0.623623 22.062C0.570296 22.3019 0.516969 22.5597 0.463642 22.8174L0.463625 22.8175C0.450294 22.8975 0.436964 22.9686 0.423634 23.0397L0.423625 23.0397C0.410292 23.1108 0.396959 23.182 0.383626 23.262C0.330293 23.5997 0.27696 23.9375 0.250294 24.2753C0.223627 24.3019 0.223627 24.3553 0.223627 24.4086C0.187187 24.8313 0.144771 25.26 0.101278 25.6996L0.101277 25.6996L0.0725178 25.9908C0.0458515 26.5864 0.0191852 27.2086 0.0191852 27.8308C0.0191852 29.0308 0.0902955 30.2219 0.250294 31.3863C0.463625 32.9952 0.801398 34.5507 1.29028 36.0796C1.50361 36.7818 1.73472 37.4307 1.9925 38.0796C2.61471 39.6618 3.39692 41.1729 4.27691 42.5951C4.27691 42.6217 4.30358 42.6217 4.30358 42.6217C5.81467 44.9862 7.65465 47.0839 9.75241 48.9239C9.75241 48.9506 9.77907 48.9506 9.80574 48.9506C10.6591 49.6794 11.5657 50.355 12.499 50.9772C12.6768 51.0839 12.8368 51.2172 12.9879 51.3683C13.1657 51.4927 13.3435 51.6794 13.4768 51.8572C13.6635 52.0083 13.7879 52.195 13.8946 52.3727C14.5435 53.3061 14.9079 54.426 14.9079 55.5905C14.9079 56.2927 14.7746 56.9682 14.5435 57.5905C14.2768 58.2304 13.939 58.8082 13.4768 59.3238C13.1657 59.6615 12.8013 59.946 12.4102 60.2038C11.0324 61.1371 9.73463 62.1771 8.54353 63.3415C7.73465 64.1148 6.98799 64.9504 6.25911 65.8037C6.25911 65.8304 6.23245 65.8304 6.23245 65.8304C4.47247 68.0081 3.02359 70.417 1.98361 73.0658C1.69917 73.7592 1.45917 74.4614 1.25473 75.1636C0.783621 76.5591 0.472513 78.0169 0.268071 79.5191C0.0102964 81.3591 -0.0697027 83.2524 0.0636291 85.199C0.108073 85.7146 0.161406 86.239 0.214739 86.7279C0.214739 86.7812 0.214739 86.8346 0.241405 86.8879C0.294738 87.3768 0.365848 87.8479 0.445847 88.3368C0.472513 88.5679 0.525846 88.8079 0.605845 89.039C0.916953 90.5945 1.38806 92.1056 1.95694 93.5545C2.16138 94.0434 2.37471 94.5411 2.57916 95.0034C2.57916 95.11 2.63249 95.1811 2.71249 95.2611C3.4147 96.7367 4.24136 98.1589 5.20135 99.4833C5.53912 99.9544 5.8769 100.39 6.24134 100.834C6.57911 101.279 6.94355 101.688 7.33466 102.105C7.6991 102.514 8.08132 102.905 8.49909 103.297C8.58573 103.376 8.67085 103.454 8.75531 103.532C9.07808 103.83 9.39126 104.119 9.74352 104.408C10.0476 104.688 10.3518 104.925 10.6753 105.177L10.7835 105.261C10.9435 105.421 11.0946 105.545 11.2546 105.625C11.4204 105.737 11.5878 105.854 11.7561 105.971L11.7568 105.972L11.7573 105.972L11.7576 105.973C11.977 106.126 12.198 106.28 12.419 106.425C12.4689 106.453 12.5256 106.495 12.5806 106.535C12.6139 106.559 12.6466 106.583 12.6768 106.603C16.1434 108.879 20.1701 110.39 24.4189 110.905ZM53.7878 111.092C53.7877 111.092 53.7877 111.092 53.7876 111.092L53.7965 111.11C53.7965 111.11 53.7966 111.11 53.7966 111.11L53.7878 111.092ZM50.6449 110.928C50.5729 110.921 50.5005 110.913 50.4278 110.905C50.4277 110.905 50.4277 110.905 50.4276 110.905C50.5004 110.913 50.5728 110.921 50.6449 110.928ZM66.7959 56.7435C66.8737 56.3707 66.9157 55.9848 66.9157 55.5905C66.9157 55.2012 66.875 54.8169 66.7965 54.4428C66.717 54.8165 66.6765 55.2035 66.6765 55.5905C66.6765 55.9851 66.7172 56.3707 66.7959 56.7435ZM40.6765 55.5905C40.6765 55.21 40.7156 54.8296 40.7925 54.4618C40.8684 54.8299 40.9078 55.2078 40.9078 55.5905C40.9078 55.9781 40.8671 56.3575 40.7919 56.7244C40.7158 56.3575 40.6765 55.9784 40.6765 55.5905Z" fill="#DC79D3"/>
</svg>
