<svg width="257" height="372" viewBox="0 0 257 372" fill="none" xmlns="http://www.w3.org/2000/svg">
<path d="M256.259 202.747C256.259 183.652 248.65 165.876 235.558 150.995C228.911 143.443 228.132 132.391 233.432 123.839C289.33 33.7061 188.847 0 131.304 0C-6.29103 0 2.97238 71.5774 26.3377 124.436C30.0123 132.756 28.5118 142.501 22.3458 149.177C8.24386 164.423 0 182.873 0 202.747C0 228.834 14.2078 252.459 37.2076 269.61C45.2782 275.632 48.7796 285.906 46.6922 295.765C45.9612 299.238 45.5764 302.797 45.5764 306.433C45.5764 342.169 82.5435 371.142 128.139 371.142C173.735 371.142 210.702 342.169 210.702 306.433C210.702 302.797 210.317 299.238 209.586 295.765C207.498 285.915 211 275.642 219.071 269.61C242.07 252.459 256.278 228.834 256.278 202.747H256.259Z" fill="#426FEA"/>
<path d="M117.154 103.234L95.6262 107.351L70.1543 112.238C70.1543 112.238 54.7634 72.4042 85.7184 64.9011C88.306 64.2663 90.6915 64.1123 92.8848 64.3336C113.672 66.4595 117.154 103.234 117.154 103.234Z" fill="white"/>
<path d="M70.1439 115.037C69.0088 115.037 67.9603 114.345 67.5371 113.248C67.1811 112.334 59.0047 90.758 67.0272 75.4248C70.5575 68.6817 76.6273 64.2183 85.0538 62.179C87.853 61.496 90.585 61.2844 93.163 61.5538C115.98 63.8913 119.789 101.378 119.934 102.975C120.068 104.417 119.087 105.716 117.673 105.985L70.673 114.989C70.4998 115.028 70.317 115.037 70.1439 115.037ZM90.9794 67.0368C89.5076 67.0368 87.9685 67.2292 86.3813 67.6139C79.5804 69.2588 74.7419 72.7603 71.9908 78.0124C66.4789 88.536 70.2689 103.456 72.0196 109.016L114.037 100.964C112.834 92.9801 107.919 68.6721 92.605 67.1041C92.0759 67.0464 91.5373 67.0272 90.989 67.0272L90.9794 67.0368Z" fill="black"/>
<path d="M117.152 103.234L95.6243 107.351L92.8828 64.333C113.67 66.4589 117.152 103.234 117.152 103.234Z" fill="black"/>
<path d="M197.658 112.238L177.246 108.323L150.658 103.234C150.658 103.234 154.9 58.3021 182.094 64.9009C184.172 65.4108 186.048 66.0553 187.721 66.8344C211.048 77.5696 197.658 112.238 197.658 112.238Z" fill="white"/>
<path d="M197.659 115.038C197.486 115.038 197.303 115.018 197.13 114.99L150.121 105.986C148.706 105.717 147.725 104.408 147.86 102.975C147.966 101.85 150.621 75.406 164.761 65.325C169.965 61.6119 176.025 60.5538 182.749 62.1891C184.991 62.7374 187.059 63.4492 188.906 64.3053C209.231 73.6649 205.23 100.416 200.266 113.258C199.843 114.355 198.794 115.047 197.659 115.047V115.038ZM153.766 100.974L195.783 109.026C198.092 101.58 204.018 77.4261 186.549 69.3843C185.019 68.6725 183.298 68.0857 181.422 67.624C176.276 66.3735 171.889 67.1142 168.012 69.8845C158.23 76.8586 154.747 94.4234 153.766 100.984V100.974Z" fill="black"/>
<path d="M197.658 112.238L177.246 108.323L187.731 66.835C211.058 77.5701 197.668 112.238 197.668 112.238H197.658Z" fill="black"/>
<path d="M142.435 126.551C124.331 132.823 120.397 126.465 113.423 124.397C110.191 123.444 96.4255 125.811 103.861 133.891C111.297 141.971 134.201 146.425 144.464 145.203C166.204 142.616 163.838 119.125 142.435 126.542V126.551Z" fill="white"/>
<path d="M62.7962 60.8423C62.1517 60.8423 61.488 60.7076 60.8627 60.4094C58.5733 59.3417 57.5922 56.6194 58.66 54.3396C58.7754 54.0991 70.4436 30.0316 102.361 40.1126C104.765 40.8726 106.102 43.4409 105.342 45.8457C104.583 48.2506 102.024 49.5877 99.6094 48.8277C75.2436 41.1323 67.2693 57.5044 66.9326 58.2066C66.1534 59.8707 64.5085 60.8423 62.7866 60.8423H62.7962Z" fill="black"/>
<path d="M211.414 60.842C209.701 60.842 208.066 59.8801 207.287 58.2352C206.912 57.4656 198.658 41.2378 174.6 48.8275C172.186 49.5874 169.627 48.2503 168.867 45.8455C168.107 43.4407 169.445 40.8723 171.849 40.1124C203.776 30.0313 215.444 54.0893 215.55 54.3394C216.618 56.6288 215.627 59.3414 213.347 60.4091C212.722 60.6977 212.068 60.842 211.414 60.842Z" fill="black"/>
</svg>
