<svg width="372" height="297" viewBox="0 0 372 297" fill="none" xmlns="http://www.w3.org/2000/svg">
<path d="M322.802 290.858C320.042 292.724 317.098 294.533 313.991 296.283H236.565C246.377 280.546 252.35 259.624 252.35 236.663C252.35 187.768 225.253 148.136 191.826 148.136C158.398 148.136 131.31 187.768 131.31 236.663C131.31 259.624 137.284 280.546 147.096 296.283H23.9683C-12.8641 271.446 -40.7986 -2.53145 207.697 0.0176758C448.335 2.48022 364.348 262.856 322.802 290.858Z" fill="#426FEA"/>
<path d="M185.746 129.937C194.827 131.87 208.727 128.658 217.356 117.874C220.328 114.152 215.326 105.196 207.323 112.824C199.146 120.616 191.71 113.786 185.602 113.036C174.771 111.708 174.405 127.513 185.746 129.937Z" fill="white"/>
<path d="M168.238 83.1389C168.238 92.8736 156.407 101.021 140.515 103.157C137.88 103.503 135.119 103.695 132.281 103.695C112.427 103.695 96.3242 94.4993 96.3242 83.1485C96.3242 71.7977 112.427 62.6016 132.281 62.6016C135.109 62.6016 137.87 62.7939 140.515 63.1402C156.407 65.2757 168.238 73.4233 168.238 83.1581V83.1389Z" fill="white"/>
<path d="M132.291 106.889C110.33 106.889 93.1406 96.4519 93.1406 83.1388C93.1406 69.8256 110.34 59.3887 132.291 59.3887C135.187 59.3887 138.101 59.581 140.939 59.9562C158.898 62.3706 171.442 71.9034 171.442 83.1388C171.442 94.3742 158.908 103.917 140.949 106.321C138.092 106.696 135.187 106.889 132.291 106.889ZM132.291 65.7855C114.534 65.7855 99.5375 73.7311 99.5375 83.1388C99.5375 92.5465 114.534 100.492 132.291 100.492C134.908 100.492 137.534 100.319 140.102 99.9822C154.55 98.0391 165.035 90.9593 165.035 83.1388C165.035 75.3183 154.541 68.2384 140.093 66.2953C137.534 65.9587 134.908 65.7855 132.291 65.7855Z" fill="black"/>
<path d="M168.239 83.1389C168.239 92.8737 156.407 101.021 140.516 103.157C136.706 97.4236 134.484 90.5458 134.484 83.1389C134.484 75.732 136.706 68.8542 140.516 63.1211C156.407 65.2566 168.239 73.4042 168.239 83.1389Z" fill="black"/>
<path d="M96.3444 56.5509C94.8438 56.5509 93.3624 55.8583 92.4101 54.5597C90.8229 52.3953 91.2847 49.3556 93.449 47.7588C94.6514 46.8738 123.336 26.2115 152.839 39.9672C155.282 41.1022 156.331 43.9976 155.195 46.4409C154.06 48.8843 151.165 49.9328 148.722 48.7977C124.51 37.5142 99.4611 55.4351 99.211 55.6178C98.3452 56.2527 97.3352 56.5509 96.3444 56.5509Z" fill="black"/>
<path d="M298.57 83.1379C298.57 92.8726 286.739 101.02 270.847 103.156C268.212 103.502 265.451 103.694 262.613 103.694C242.759 103.694 226.656 94.4983 226.656 83.1475C226.656 71.7967 242.759 62.6006 262.613 62.6006C265.441 62.6006 268.202 62.793 270.847 63.1393C286.739 65.2748 298.57 73.4223 298.57 83.1571V83.1379Z" fill="white"/>
<path d="M262.623 106.888C240.662 106.888 223.473 96.451 223.473 83.1378C223.473 69.8247 240.672 59.3877 262.623 59.3877C265.519 59.3877 268.433 59.58 271.271 59.9552C289.23 62.3697 301.774 71.9024 301.774 83.1378C301.774 94.3732 289.23 103.916 271.281 106.32C268.424 106.696 265.519 106.888 262.623 106.888ZM262.623 65.7845C244.866 65.7845 229.87 73.7301 229.87 83.1378C229.87 92.5455 244.866 100.491 262.623 100.491C265.24 100.491 267.866 100.318 270.434 99.9813C284.882 98.0382 295.377 90.9583 295.377 83.1378C295.377 75.3173 284.882 68.2375 270.434 66.2944C267.875 65.9577 265.249 65.7845 262.633 65.7845H262.623Z" fill="black"/>
<path d="M298.571 83.1379C298.571 92.8727 286.739 101.02 270.848 103.156C267.038 97.4226 264.816 90.5448 264.816 83.1379C264.816 75.7311 267.038 68.8532 270.848 63.1201C286.739 65.2556 298.571 73.4032 298.571 83.1379Z" fill="black"/>
<path d="M298.571 53.4332C297.57 53.4332 296.57 53.1253 295.704 52.5001C295.348 52.2403 272.117 35.8106 247.992 47.0652C245.549 48.2003 242.653 47.1421 241.518 44.7084C240.383 42.2747 241.441 39.3697 243.875 38.2346C273.368 24.4886 300.321 43.8042 301.456 44.6315C303.63 46.2187 304.102 49.268 302.505 51.442C301.553 52.7406 300.071 53.4332 298.571 53.4332Z" fill="black"/>
</svg>
