<svg width="285" height="303" viewBox="0 0 285 303" fill="none" xmlns="http://www.w3.org/2000/svg">
<path d="M0.15467 258.823C0.15467 258.823 -10.1105 2.06057 136.613 0.0141963C283.337 -2.0405 287.438 219.584 284.36 248.308C281.282 277.032 277.863 302.346 259.055 301.663C240.246 300.981 232.377 269.512 232.377 269.512C232.377 269.512 224.166 302.346 206.731 299.268C189.286 296.19 186.891 267.807 186.891 267.807C186.891 267.807 184.27 299.733 164.206 299.043C144.366 298.361 142.469 267.466 142.469 267.466C142.469 267.466 136.555 302.512 113.978 301.472C91.4097 300.432 95.5774 266.775 95.5774 266.775C95.5774 266.775 94.4377 302.046 72.3269 301.056C41.9141 299.692 49.7502 268.489 49.7502 268.489C49.7502 268.489 52.0295 299.526 29.4611 301.871C6.89274 304.217 3.923 282.689 0.162988 258.831L0.15467 258.823Z" fill="#00BF73"/>
<path d="M124.811 86.4775C124.811 90.8864 123.022 94.871 120.144 97.7576C117.257 100.644 113.264 102.433 108.864 102.433H72.3203C63.5109 102.433 56.3652 95.2869 56.3652 86.4775C56.3652 82.0687 58.1537 78.0841 61.0403 75.1975C63.9268 72.311 67.9115 70.5225 72.3203 70.5225H108.864C117.673 70.5225 124.811 77.6681 124.811 86.4775Z" fill="white"/>
<path d="M108.863 104.853H72.3192C62.1871 104.853 53.9434 96.6094 53.9434 86.4774C53.9434 81.5611 55.8566 76.9526 59.3338 73.4837C62.7944 70.0148 67.4112 68.1016 72.3275 68.1016H108.871C119.003 68.1016 127.239 76.3453 127.239 86.4774C127.239 91.3853 125.325 96.0022 121.865 99.471C118.396 102.94 113.779 104.853 108.871 104.853H108.863ZM72.3192 72.943C68.7006 72.943 65.3066 74.3488 62.7528 76.911C60.1906 79.4648 58.7848 82.8588 58.7848 86.4774C58.7848 93.9391 64.8574 100.012 72.3192 100.012H108.863C112.473 100.012 115.875 98.6059 118.429 96.0437C120.983 93.4899 122.389 90.0959 122.389 86.4774C122.389 79.0156 116.325 72.943 108.863 72.943H72.3192Z" fill="black"/>
<path d="M124.809 86.4775C124.809 90.8864 123.02 94.871 120.142 97.7576C117.255 100.644 113.262 102.433 108.862 102.433H93.2146C91.5093 97.4331 90.5859 92.0593 90.5859 86.4775C90.5859 80.8958 91.5093 75.5219 93.2146 70.5225H108.862C117.671 70.5225 124.809 77.6681 124.809 86.4775Z" fill="black"/>
<path d="M228.567 86.4775C228.567 90.8864 226.778 94.871 223.9 97.7576C221.013 100.644 217.02 102.433 212.62 102.433H176.076C167.267 102.433 160.121 95.2869 160.121 86.4775C160.121 82.0687 161.91 78.0841 164.796 75.1975C167.683 72.311 171.667 70.5225 176.076 70.5225H212.62C221.429 70.5225 228.567 77.6681 228.567 86.4775Z" fill="white"/>
<path d="M212.621 104.853H176.077C165.945 104.853 157.701 96.6094 157.701 86.4774C157.701 81.5611 159.614 76.9526 163.083 73.4837C166.544 70.0148 171.161 68.1016 176.077 68.1016H212.621C222.753 68.1016 230.988 76.3453 230.988 86.4774C230.988 91.3853 229.075 96.0022 225.614 99.471C222.145 102.94 217.529 104.853 212.621 104.853ZM176.077 72.943C172.458 72.943 169.064 74.3488 166.511 76.911C163.948 79.4648 162.543 82.8588 162.543 86.4774C162.543 93.9391 168.615 100.012 176.077 100.012H212.621C216.231 100.012 219.633 98.6059 222.187 96.0437C224.741 93.4899 226.147 90.0959 226.147 86.4774C226.147 79.0156 220.082 72.943 212.621 72.943H176.077Z" fill="black"/>
<path d="M228.568 86.4775C228.568 90.8864 226.78 94.871 223.902 97.7576C221.015 100.644 217.022 102.433 212.622 102.433H196.974C195.269 97.4331 194.346 92.0593 194.346 86.4775C194.346 80.8958 195.269 75.5219 196.974 70.5225H212.622C221.431 70.5225 228.568 77.6681 228.568 86.4775Z" fill="black"/>
<path d="M117.266 125.691H160.115C160.115 125.691 154.999 142.67 137.829 142.67C129.519 142.67 121.766 137.878 117.266 125.691Z" fill="white"/>
<path d="M109.712 57.8368C109.063 57.8368 108.406 57.6621 107.816 57.296C89.7309 46.0742 66.8381 57.3376 66.6135 57.4541C64.8417 58.3442 62.6788 57.6288 61.7887 55.8569C60.8986 54.0851 61.6057 51.9222 63.3776 51.0321C64.459 50.4831 90.0637 37.8139 111.617 51.1819C113.306 52.23 113.822 54.4428 112.773 56.1314C112.091 57.2295 110.918 57.8284 109.712 57.8284V57.8368Z" fill="black"/>
<path d="M216.697 57.8372C216.156 57.8372 215.599 57.7124 215.083 57.4546C214.858 57.3381 191.965 46.083 173.881 57.2965C172.192 58.3447 169.979 57.8206 168.931 56.1402C167.883 54.4515 168.407 52.2388 170.088 51.1907C191.641 37.8227 217.246 50.4919 218.327 51.0409C220.099 51.9393 220.806 54.1022 219.916 55.874C219.284 57.1218 218.019 57.8455 216.705 57.8455L216.697 57.8372Z" fill="black"/>
</svg>
