<svg width="449" height="318" viewBox="0 0 449 318" fill="none" xmlns="http://www.w3.org/2000/svg">
<path d="M244.122 284.985C356.89 267.165 439.367 196.145 428.339 126.359C417.311 56.5727 316.954 14.446 204.186 32.2664C91.417 50.0869 8.94005 121.106 19.9682 190.893C30.9963 260.679 131.353 302.806 244.122 284.985Z" fill="#777984"/>
<path d="M169.045 149.326C186.131 147.473 198.709 134.235 197.139 119.758C195.569 105.281 180.445 95.0474 163.359 96.9005C146.273 98.7536 133.695 111.992 135.265 126.469C136.835 140.946 151.959 151.179 169.045 149.326Z" fill="white"/>
<path d="M165.058 152.695C148.09 152.695 133.748 141.748 132.122 126.829C130.371 110.659 144.223 95.8448 163 93.8055C181.767 91.7662 198.486 103.271 200.236 119.441C201.093 127.377 198.293 135.188 192.339 141.45C186.519 147.568 178.362 151.483 169.358 152.455C167.906 152.608 166.473 152.685 165.049 152.685L165.058 152.695ZM167.319 99.8465C166.117 99.8465 164.905 99.9138 163.673 100.048C148.33 101.713 136.97 113.429 138.355 126.155C139.74 138.891 153.333 147.895 168.685 146.231C176.217 145.413 182.999 142.181 187.799 137.141C192.464 132.235 194.667 126.194 194.003 120.124C192.733 108.408 181.113 99.8465 167.319 99.8465Z" fill="black"/>
<path d="M175.785 122.096C176.275 126.589 172.37 130.696 167.06 131.273C161.76 131.85 157.056 128.676 156.575 124.174C156.084 119.682 159.99 115.575 165.3 114.997C170.6 114.42 175.304 117.595 175.785 122.096Z" fill="black"/>
<path d="M308.494 125.318C308.349 125.318 308.215 125.318 308.07 125.289L253.981 117.931C252.673 117.758 251.624 116.776 251.336 115.497C251.057 114.208 251.605 112.89 252.721 112.178L285.561 91.2948C287.023 90.3713 288.957 90.7946 289.89 92.2567C290.823 93.7188 290.39 95.6523 288.928 96.5854L263.312 112.871L308.907 119.075C310.619 119.306 311.822 120.893 311.591 122.606C311.379 124.174 310.033 125.318 308.484 125.318H308.494Z" fill="black"/>
<path d="M227.17 181.236C209.586 181.236 195.753 172.79 195.532 172.646C194.06 171.732 193.618 169.789 194.532 168.327C195.455 166.864 197.379 166.412 198.851 167.326C200.169 168.144 231.374 187.075 257.721 162.767C258.991 161.593 260.972 161.67 262.156 162.949C263.329 164.219 263.252 166.21 261.973 167.384C250.497 177.965 238.107 181.236 227.161 181.236H227.17Z" fill="black"/>
<path d="M125.312 98.0669C124.282 98.0669 123.243 97.7399 122.368 97.0473C120.29 95.4216 119.925 92.4204 121.55 90.3426C122.445 89.1979 143.992 62.2638 179.815 68.6895C182.412 69.1513 184.134 71.6331 183.672 74.2303C183.21 76.8275 180.728 78.5493 178.131 78.0876C147.898 72.6719 129.255 95.9892 129.073 96.22C128.13 97.4225 126.726 98.0477 125.312 98.0477V98.0669Z" fill="black"/>
<path d="M250.604 84.4848C248.93 84.4848 247.304 83.6095 246.429 82.0415C245.14 79.7425 245.957 76.8279 248.266 75.5389L284.55 55.2325C286.849 53.9435 289.764 54.7707 291.043 57.0698C292.332 59.3688 291.515 62.2834 289.206 63.5724L252.922 83.8788C252.181 84.2924 251.383 84.4848 250.594 84.4848H250.604Z" fill="black"/>
</svg>
