<svg width="394" height="313" viewBox="0 0 394 313" fill="none" xmlns="http://www.w3.org/2000/svg">
<path d="M60.7951 23.8638L2.54054 181.371C-5.65512 203.524 6.6865 227.967 29.3785 234.527L293.371 310.876C315.044 317.138 337.716 304.796 344.209 283.191L392.277 123.289C397.683 105.291 387.487 86.3221 369.489 80.9161L105.573 1.55664C87.0944 -4.00333 67.4805 5.76989 60.7855 23.8735L60.7951 23.8638Z" fill="#E8A8E3"/>
<path d="M193.764 138.488L238.83 148.56C238.83 148.56 209.53 183.507 193.764 138.488Z" fill="white"/>
<path d="M213.089 86.2168C213.089 86.2168 205.499 97.6349 193.456 103.974C185.135 108.351 174.525 110.794 162.366 106.571C162.097 106.475 161.818 106.379 161.549 106.283C140.819 98.6257 133.489 75.7509 135.48 57.5127L213.089 86.2168Z" fill="white"/>
<path d="M175.026 111.583C170.514 111.583 165.993 110.794 161.462 109.226C161.155 109.12 160.866 109.024 160.587 108.918C138.462 100.742 130.623 76.3854 132.701 57.2237C132.797 56.3676 133.278 55.598 134.009 55.1459C134.74 54.6938 135.644 54.5977 136.452 54.8959L214.061 83.5999C214.859 83.8981 215.485 84.5426 215.754 85.3603C216.023 86.1779 215.898 87.0629 215.427 87.7747C215.1 88.2653 207.298 99.8662 194.774 106.465C188.281 109.88 181.682 111.592 175.026 111.592V111.583ZM138.01 61.437C137.424 77.8283 144.561 97.0189 162.53 103.656C162.78 103.752 163.03 103.839 163.271 103.926C172.977 107.292 182.692 106.475 192.158 101.501C199.805 97.4806 205.625 91.18 208.587 87.5439L138.01 61.4466V61.437Z" fill="black"/>
<path d="M193.457 103.984C185.136 108.36 174.526 110.804 162.367 106.581C160.742 102.829 160.501 98.4814 162.031 94.3451C165.186 85.8224 174.651 81.4648 183.184 84.62C191.11 87.5539 195.438 95.9612 193.457 103.984Z" fill="black"/>
<path d="M257.184 102.53C257.184 102.53 255.51 116.142 260.531 128.791C264.004 137.525 270.468 146.289 282.444 150.992C282.704 151.098 282.983 151.204 283.252 151.3C303.972 158.967 324.423 146.375 334.783 131.234L257.174 102.53H257.184Z" fill="white"/>
<path d="M296.017 156.408C291.516 156.408 286.908 155.639 282.281 153.927C282.012 153.83 281.742 153.725 281.483 153.619C270.372 149.252 262.465 141.248 257.925 129.821C252.702 116.652 254.327 102.771 254.395 102.184C254.5 101.338 254.991 100.578 255.722 100.135C256.453 99.6929 257.348 99.6063 258.156 99.9045L335.765 128.609C336.573 128.907 337.198 129.561 337.467 130.388C337.727 131.215 337.592 132.11 337.111 132.822C328.502 145.404 313.063 156.418 296.027 156.418L296.017 156.408ZM259.743 106.465C259.618 111.159 259.945 119.73 263.129 127.753C267.073 137.689 273.912 144.625 283.464 148.376C283.753 148.492 283.984 148.578 284.215 148.665C302.193 155.312 320.095 145.385 330.31 132.562L259.733 106.465H259.743Z" fill="black"/>
<path d="M260.531 128.782C264.004 137.516 270.468 146.279 282.444 150.983C286.119 149.194 289.13 146.039 290.659 141.912C293.814 133.39 289.457 123.915 280.934 120.759C273.008 117.825 264.254 121.394 260.531 128.782Z" fill="black"/>
<path d="M204.402 57.7046C204.133 57.7046 203.854 57.6854 203.584 57.6373L157.508 50.2208C154.708 49.7687 152.804 47.133 153.256 44.3338C153.708 41.5345 156.344 39.6299 159.143 40.082L205.219 47.4985C208.019 47.9507 209.923 50.5863 209.471 53.3856C209.067 55.9058 206.884 57.7046 204.411 57.7046H204.402Z" fill="black"/>
<path d="M333.774 115.18C332.86 115.18 331.936 114.939 331.099 114.42L291.285 90.0735C288.871 88.5921 288.101 85.4274 289.582 83.013C291.064 80.5889 294.219 79.8289 296.643 81.3103L336.457 105.657C338.872 107.138 339.641 110.303 338.16 112.717C337.189 114.305 335.505 115.17 333.774 115.17V115.18Z" fill="black"/>
</svg>
