<svg width="349" height="399" viewBox="0 0 349 399" fill="none" xmlns="http://www.w3.org/2000/svg">
<path d="M32.5761 80.4366L258.14 1.83702C276.82 -4.66564 296.954 6.72366 300.994 26.0874L346.022 242.118C352.823 262.636 343.251 285.011 323.715 294.265L114.119 393.488C85.7709 406.907 52.3149 390.487 45.5717 359.859L0.899589 134.209C-3.72731 110.843 9.89367 87.728 32.5664 80.4366H32.5761Z" fill="#F57160"/>
<path d="M193.833 118.763C199.824 99.7297 194.081 80.9641 181.007 76.8493C167.932 72.7345 152.478 84.8288 146.487 103.863C140.497 122.896 146.239 141.662 159.314 145.777C172.388 149.891 187.843 137.797 193.833 118.763Z" fill="white"/>
<path d="M164.484 149.609C162.426 149.609 160.387 149.311 158.395 148.676C143.736 144.058 137.089 123.54 143.572 102.936C150.055 82.3215 167.264 69.3162 181.924 73.9239C196.584 78.5412 203.231 99.0592 196.748 119.664C191.14 137.469 177.548 149.609 164.494 149.609H164.484ZM175.662 79.0798C165.292 79.0798 154.182 89.5649 149.392 104.773C143.918 122.174 148.776 139.249 160.223 142.856C171.67 146.463 185.435 135.237 190.909 117.836C196.382 100.444 191.524 83.3508 180.077 79.7532C178.635 79.3011 177.153 79.0798 175.662 79.0798Z" fill="black"/>
<path d="M180.943 117.903C178.904 124.367 172.017 127.965 165.552 125.926C159.088 123.886 155.491 116.999 157.53 110.535C159.569 104.071 166.457 100.473 172.921 102.512C179.385 104.552 182.983 111.439 180.943 117.903Z" fill="black"/>
<path d="M270.346 163.476C281.504 146.934 281.338 127.31 269.975 119.645C258.611 111.981 240.354 119.178 229.196 135.721C218.038 152.263 218.204 171.887 229.567 179.552C240.93 187.216 259.188 180.019 270.346 163.476Z" fill="white"/>
<path d="M240.053 185.767C235.561 185.767 231.415 184.565 227.856 182.16C215.12 173.57 214.581 152.003 226.663 134.092C238.745 116.181 258.945 108.601 271.681 117.191C284.417 125.781 284.956 147.348 272.874 165.259C267.132 173.762 259.417 180.246 251.144 183.507C247.325 185.007 243.583 185.758 240.043 185.758L240.053 185.767ZM231.732 137.507C221.536 152.629 221.324 170.386 231.271 177.1C235.907 180.226 242.169 180.486 248.903 177.831C256.04 175.022 262.745 169.347 267.805 161.854C278.001 146.732 278.213 128.975 268.267 122.26C258.32 115.546 241.929 122.395 231.732 137.507Z" fill="black"/>
<path d="M260.351 152.513C260.498 145.735 255.123 140.122 248.346 139.976C241.568 139.829 235.955 145.204 235.809 151.982C235.662 158.759 241.037 164.372 247.814 164.519C254.592 164.665 260.205 159.29 260.351 152.513Z" fill="black"/>
<path d="M191.437 193.54C187.388 193.54 183.626 192.664 180.183 190.904C168.726 185.075 165.225 171.713 165.08 171.146C164.667 169.511 165.657 167.846 167.293 167.433C168.918 167.019 170.583 168.01 171.006 169.636C171.054 169.818 174.045 180.948 182.991 185.469C188.436 188.22 195.141 188.037 202.923 184.911C204.491 184.286 206.27 185.046 206.896 186.604C207.521 188.172 206.761 189.952 205.203 190.577C200.316 192.539 195.718 193.52 191.447 193.52L191.437 193.54Z" fill="black"/>
<path d="M197.768 69.8643C196.758 69.8643 195.738 69.5372 194.882 68.8542C180.655 57.59 165.678 64.1504 165.043 64.439C162.705 65.4875 159.954 64.4678 158.887 62.1399C157.819 59.8121 158.829 57.0705 161.147 55.9932C161.984 55.6084 181.848 46.672 200.644 61.5724C202.655 63.1692 203.001 66.0935 201.404 68.1039C200.49 69.2679 199.124 69.8643 197.758 69.8643H197.768Z" fill="black"/>
<path d="M294.124 128.014C292.037 128.014 290.132 126.6 289.613 124.484C289.43 123.772 285.217 108.006 267.575 103.898C265.074 103.311 263.516 100.82 264.093 98.319C264.67 95.818 267.171 94.2693 269.672 94.8369C293.037 100.272 298.424 121.367 298.636 122.262C299.242 124.753 297.712 127.273 295.211 127.879C294.846 127.966 294.471 128.014 294.105 128.014H294.124Z" fill="black"/>
</svg>
