<svg width="229" height="395" viewBox="0 0 229 395" fill="none" xmlns="http://www.w3.org/2000/svg">
<path d="M197.178 372.165L73.5123 393.625C50.349 397.646 28.7151 380.947 26.7336 357.514L0.155345 42.0004C-1.98015 17.9713 18.2012 -2.09462 42.2206 0.175539L194.254 14.5756C213.849 16.4322 228.816 32.8812 228.816 52.5624V334.572C228.816 353.128 215.465 368.99 197.188 372.165H197.178Z" fill="#F57160"/>
<path d="M92.9906 80.2665C92.9906 86.9135 83.8811 92.4926 71.5972 94.0413C69.3944 94.3203 67.0761 94.4646 64.6905 94.4646C49.0591 94.4646 36.3809 88.1062 36.3809 80.2665C36.3809 72.4267 49.0494 66.0684 64.6905 66.0684C67.0761 66.0684 69.3847 66.2126 71.5876 66.4916C83.8811 68.0306 92.9906 73.6099 92.9906 80.2569V80.2665Z" fill="white"/>
<path d="M64.6909 97.2632C47.2511 97.2632 33.582 89.7987 33.582 80.2659C33.582 70.7332 47.2511 63.2686 64.6909 63.2686C67.1727 63.2686 69.616 63.4224 71.9439 63.7206C86.1998 65.5098 95.7901 72.1569 95.7901 80.2659C95.7901 88.375 86.2094 95.022 71.9439 96.8208C69.5679 97.119 67.1246 97.2729 64.6909 97.2729V97.2632ZM64.6909 68.867C49.6655 68.867 39.1901 74.8695 39.1901 80.2563C39.1901 85.6431 49.6655 91.6552 64.6909 91.6552C66.8937 91.6552 69.0966 91.5205 71.2513 91.2511C82.0442 89.8948 90.1917 85.1622 90.1917 80.2563C90.1917 75.3505 82.0442 70.6177 71.2417 69.271C69.1447 69.0017 66.9418 68.867 64.6909 68.867Z" fill="black"/>
<path d="M92.992 80.2663C92.992 86.9132 83.8825 92.4924 71.5986 94.0411C69.0399 90.0683 67.5488 85.3453 67.5488 80.2663C67.5488 75.1873 69.0303 70.4641 71.589 66.501C83.8825 68.0401 92.992 73.6193 92.992 80.2663Z" fill="black"/>
<path d="M197.948 81.7948C197.948 88.4418 188.838 94.0209 176.554 95.5696C174.351 95.8486 172.033 95.993 169.648 95.993C154.016 95.993 141.338 89.6346 141.338 81.7948C141.338 73.9551 154.006 67.5967 169.648 67.5967C172.033 67.5967 174.342 67.7409 176.545 68.0199C188.838 69.559 197.948 75.1382 197.948 81.7852V81.7948Z" fill="white"/>
<path d="M169.648 98.7926C152.208 98.7926 138.539 91.328 138.539 81.7952C138.539 72.2625 152.198 64.7979 169.648 64.7979C172.139 64.7979 174.573 64.9517 176.901 65.2499C191.157 67.0391 200.747 73.6862 200.747 81.7952C200.747 89.9043 191.166 96.5513 176.901 98.3501C174.525 98.6483 172.082 98.8021 169.648 98.8021V98.7926ZM169.648 70.3964C154.623 70.3964 144.147 76.3988 144.147 81.7856C144.147 87.1724 154.623 93.1845 169.648 93.1845C171.851 93.1845 174.054 93.0499 176.208 92.7806C187.001 91.4242 195.149 86.6915 195.149 81.7856C195.149 76.8798 187.001 72.147 176.199 70.8003C174.102 70.531 171.899 70.3964 169.648 70.3964Z" fill="black"/>
<path d="M197.949 81.7946C197.949 88.4416 188.84 94.0207 176.556 95.5694C173.997 91.5967 172.506 86.8736 172.506 81.7946C172.506 76.7156 173.987 71.9925 176.546 68.0293C188.84 69.5684 197.949 75.1477 197.949 81.7946Z" fill="black"/>
<path d="M142.464 118.551C146.966 120.475 138.261 138.867 117.165 139.011C96.0607 138.857 87.3647 120.475 91.8666 118.551C95.7047 116.204 105.718 122.947 117.165 122.389C128.612 122.947 138.626 116.204 142.464 118.551Z" fill="black"/>
<path d="M36.3811 57.2465C35.448 57.2465 34.5148 56.8521 33.8607 56.0826C32.6775 54.6877 32.8507 52.6004 34.2359 51.4172C34.4571 51.2248 56.8414 32.6209 82.0344 48.5505C83.5735 49.5221 84.0352 51.571 83.0636 53.1197C82.0824 54.6684 80.0431 55.1206 78.4944 54.1491C57.3704 40.7878 38.709 56.3038 38.5262 56.4577C37.9009 56.9868 37.141 57.2465 36.3811 57.2465Z" fill="black"/>
<path d="M197.487 57.2465C196.737 57.2465 195.977 56.9868 195.351 56.4673C194.582 55.8229 176.382 40.8648 155.374 54.1491C153.825 55.1302 151.786 54.6684 150.804 53.1197C149.823 51.571 150.285 49.5317 151.834 48.5505C177.027 32.6209 199.411 51.2248 199.632 51.4172C201.027 52.6004 201.19 54.6877 200.007 56.0826C199.353 56.8521 198.42 57.2465 197.487 57.2465Z" fill="black"/>
</svg>
