<svg width="367" height="332" viewBox="0 0 367 332" fill="none" xmlns="http://www.w3.org/2000/svg">
<path d="M183.335 331.751C284.588 331.751 366.669 257.486 366.669 165.876C366.669 74.2651 284.588 0 183.335 0C82.0817 0 0 74.2651 0 165.876C0 257.486 82.0817 331.751 183.335 331.751Z" fill="#F5B14D"/>
<path d="M159.526 112.277C160.017 121.348 156.083 129.62 149.618 135.036C145.194 138.739 139.576 141.086 133.371 141.414C118.096 142.241 105.042 130.524 104.225 115.249C103.398 99.9831 115.114 86.9296 130.399 86.1024C142.885 85.429 153.889 93.1437 157.93 104.331C158.834 106.822 159.392 109.477 159.536 112.267L159.526 112.277Z" fill="white"/>
<path d="M131.842 144.367C124.29 144.367 117.095 141.616 111.439 136.537C105.36 131.082 101.762 123.579 101.329 115.422C100.887 107.265 103.657 99.4156 109.111 93.3362C114.575 87.2568 122.078 83.6592 130.235 83.2263C143.616 82.5048 156.111 90.7871 160.652 103.369C161.671 106.159 162.268 109.112 162.431 112.132C162.951 121.848 158.968 131.015 151.484 137.268C151.436 137.306 151.388 137.345 151.34 137.383C146.271 141.568 140.114 143.972 133.525 144.328C132.957 144.357 132.4 144.376 131.842 144.376V144.367ZM131.861 88.9786C131.428 88.9786 130.985 88.9883 130.553 89.0171C123.935 89.373 117.855 92.2877 113.43 97.2128C109.005 102.138 106.764 108.496 107.12 115.105C107.476 121.713 110.391 127.793 115.316 132.218C120.241 136.642 126.599 138.884 133.217 138.528C138.604 138.239 143.635 136.258 147.752 132.814C147.79 132.775 147.839 132.747 147.877 132.718C153.86 127.648 157.054 120.27 156.631 112.44C156.496 109.997 156.015 107.602 155.188 105.341C151.657 95.5583 142.182 88.9786 131.851 88.9786H131.861Z" fill="black"/>
<path d="M159.526 112.276C160.016 121.347 156.082 129.62 149.618 135.036C149.233 135.093 148.848 135.122 148.463 135.151C138.998 135.661 130.908 128.398 130.398 118.933C129.889 109.467 137.151 101.377 146.616 100.868C150.839 100.637 154.803 101.964 157.929 104.35C158.833 106.841 159.391 109.496 159.535 112.286L159.526 112.276Z" fill="black"/>
<path d="M258.28 107.689C258.771 116.76 254.837 125.032 248.372 130.448C243.947 134.152 238.33 136.499 232.125 136.835C216.85 137.663 203.796 125.946 202.979 110.671C202.151 95.405 213.868 82.3515 229.153 81.5243C241.639 80.8509 252.643 88.5656 256.683 99.7529C257.588 102.244 258.146 104.899 258.29 107.689H258.28Z" fill="white"/>
<path d="M230.615 139.769C214.493 139.769 200.958 127.11 200.073 110.825C199.631 102.667 202.401 94.818 207.855 88.7385C213.319 82.6591 220.822 79.0615 228.979 78.6286C242.331 77.9072 254.855 86.1894 259.396 98.7715C260.415 101.561 261.012 104.514 261.175 107.535C261.695 117.26 257.712 126.417 250.228 132.68C250.18 132.718 250.132 132.757 250.084 132.795C245.015 136.979 238.868 139.375 232.279 139.731C231.721 139.759 231.163 139.779 230.615 139.779V139.769ZM230.615 84.381C230.182 84.381 229.739 84.3906 229.306 84.4195C222.688 84.7754 216.609 87.69 212.184 92.6151C207.759 97.5402 205.518 103.899 205.874 110.507C206.605 124.157 218.292 134.671 231.971 133.93C237.358 133.642 242.389 131.67 246.506 128.216C246.544 128.178 246.592 128.149 246.64 128.11C252.624 123.041 255.817 115.663 255.394 107.833C255.259 105.39 254.778 102.994 253.951 100.734C250.421 90.951 240.936 84.3714 230.615 84.3714V84.381Z" fill="black"/>
<path d="M258.28 107.688C258.77 116.759 254.836 125.032 248.372 130.448C247.987 130.505 247.602 130.534 247.217 130.563C237.752 131.073 229.662 123.81 229.152 114.345C228.642 104.879 235.905 96.7896 245.37 96.2798C249.593 96.0489 253.556 97.3764 256.683 99.762C257.587 102.253 258.145 104.908 258.289 107.698L258.28 107.688Z" fill="black"/>
<path d="M182.817 164.125C170.581 164.125 161.193 156.025 161.048 155.9C159.846 154.842 159.73 153.005 160.798 151.802C161.856 150.6 163.684 150.484 164.886 151.543C165.646 152.206 183.74 167.665 200.824 149.58C201.921 148.416 203.758 148.359 204.922 149.465C206.086 150.561 206.144 152.399 205.037 153.563C197.486 161.556 189.695 164.125 182.817 164.125Z" fill="black"/>
<path d="M101.984 78.1086C100.484 78.1086 99.0214 77.3679 98.1653 76.0019C96.8378 73.8953 97.4631 71.1153 99.5698 69.7878C100.599 69.1337 125.051 53.9352 144.463 63.9393C146.676 65.084 147.551 67.7966 146.406 70.0091C145.262 72.2215 142.549 73.0873 140.336 71.9522C125.523 64.3241 104.591 77.2813 104.389 77.416C103.639 77.8873 102.811 78.1086 101.994 78.1086H101.984Z" fill="black"/>
<path d="M255.892 70.5481C255.229 70.5481 254.555 70.4038 253.92 70.0863C253.699 69.9805 231.498 59.3415 217.588 68.5184C215.51 69.8939 212.711 69.3168 211.345 67.239C209.979 65.1612 210.547 62.362 212.625 60.9961C230.853 48.9719 256.787 61.4578 257.883 61.9869C260.115 63.0835 261.039 65.7865 259.942 68.0182C259.163 69.615 257.556 70.5384 255.892 70.5384V70.5481Z" fill="black"/>
</svg>
